<svg width="232" height="15" viewBox="0 0 232 15" fill="none" xmlns="http://www.w3.org/2000/svg">
<path d="M0.98 1.76C0.44 9.18 0.38 9.76 0.38 10.64C0.38 13.04 2.12 14.24 4.32 14.24C7.26 14.24 9.02 12.66 9.22 9.6L9.76 1.76H8.08L7.54 9.8C7.38 12 6.44 12.82 4.9 12.82C3.28 12.82 2.18 12 2.18 10.1C2.18 9.22 2.26 8.54 2.72 1.76H0.98ZM15.8945 6.16C16.5745 6.16 16.8345 6.62 16.8345 7.84C16.8345 9.02 16.3345 13.04 16.2545 14H17.8945C17.9945 12.98 18.5545 8.7 18.5545 7.12C18.5545 5.52 17.9345 4.76 16.7345 4.76C15.7145 4.76 14.5945 5.62 13.6345 7.36L13.5345 4.76L12.1545 5.04L11.5345 14H13.1745L13.4545 10.18C13.8345 7.28 15.2345 6.16 15.8945 6.16ZM20.8961 2.04C20.8961 2.46 21.5361 3 21.8961 3C22.2761 3 22.9561 2.18 22.9561 1.82C22.9561 1.36 22.2961 0.819999 21.9561 0.819999C21.5961 0.819999 20.8961 1.6 20.8961 2.04ZM20.8761 5.04L20.2361 14H21.8561L22.5161 4.76L20.8761 5.04ZM26.7716 14C29.0516 12.14 30.4116 7.9 30.6916 5H29.2316C28.8116 7.74 28.0516 10.74 26.4116 12.6L25.9316 4.84L24.3316 5.12L24.9516 14H26.7716ZM34.1622 14.24C35.3622 14.24 36.6222 13.4 37.4022 12.64L36.9222 11.76C36.1422 12.42 35.3622 12.94 34.5422 12.94C33.7622 12.94 33.0622 12.24 33.0622 10.34C33.0622 10.22 33.0622 10.08 33.0622 9.96C35.2822 9.86 37.5422 8.72 37.5422 6.8C37.5422 5.74 36.7622 4.76 35.3422 4.76C33.3022 4.76 31.3622 6.88 31.3622 10.66C31.3622 13.04 32.4622 14.24 34.1622 14.24ZM34.9622 5.9C35.5822 5.9 35.9622 6.36 35.9622 7C35.9622 8.08 34.8622 8.9 33.1222 9.02C33.3422 6.98 34.0622 5.9 34.9622 5.9ZM40.5064 10.7C40.7864 6.92 42.2064 6.44 43.2064 6.44C43.4464 6.44 43.6064 6.48 43.6864 6.5L44.0064 4.78C43.9464 4.76 43.8864 4.76 43.7264 4.76C42.6664 4.76 41.4664 5.48 40.7064 7.4L40.6064 4.76L39.2264 5.04L38.6064 14H40.2464L40.5064 10.68V10.7ZM46.3392 14.24C47.6392 14.24 49.2992 13.28 49.2992 11.44C49.2992 10.62 48.9792 10.08 48.1192 9.36L46.9792 8.4C46.1992 7.74 46.0392 7.36 46.0392 6.98C46.0392 6.38 46.4192 5.96 47.0592 5.96C47.7992 5.96 48.7792 6.3 49.3392 6.52L49.7592 5.2C49.3992 5.02 48.2592 4.76 47.3792 4.76C45.9992 4.76 44.4992 5.7 44.4992 7.34C44.4992 8.32 44.8992 8.88 45.6792 9.54L46.8192 10.5C47.5392 11.1 47.7392 11.52 47.7392 11.96C47.7392 12.5 47.4192 13 46.6992 13C45.7992 13 44.9392 12.72 44.0592 12.32L43.6392 13.7C44.1992 13.94 45.1592 14.24 46.3392 14.24ZM51.5133 2.04C51.5133 2.46 52.1533 3 52.5133 3C52.8933 3 53.5733 2.18 53.5733 1.82C53.5733 1.36 52.9133 0.819999 52.5733 0.819999C52.2133 0.819999 51.5133 1.6 51.5133 2.04ZM51.4933 5.04L50.8533 14H52.4733L53.1333 4.76L51.4933 5.04ZM59.8487 14.24L61.2087 14L62.1487 0.159999L60.5087 0.439999L60.1687 4.98C59.6887 4.84 59.1287 4.76 58.5687 4.76C56.6487 4.76 54.4687 7.2 54.4687 10.58C54.4687 13.38 55.4687 14.24 56.6887 14.24C57.8687 14.24 58.9487 13.06 59.7287 11.6L59.8487 14.24ZM57.3687 12.9C56.7087 12.9 56.1887 12.24 56.1887 10.38C56.1887 7.4 57.1087 6.02 58.2287 6.02C58.8687 6.02 59.5687 6.18 60.0687 6.36L59.9687 7.8C59.7287 11.26 58.1487 12.9 57.3687 12.9ZM68.2117 14.24L69.5717 14L70.1717 5.38C69.5317 5 68.4917 4.76 67.5517 4.76C64.8717 4.76 63.0917 7.58 63.0917 10.72C63.0917 13.28 63.9917 14.24 65.2117 14.24C66.1117 14.24 67.3317 13.4 68.1317 11.88L68.2117 14.24ZM65.9517 12.9C65.2317 12.9 64.7917 12.06 64.7917 10.54C64.7917 7.46 65.8117 5.98 67.0717 5.98C67.5117 5.98 68.0517 6.1 68.5117 6.32L68.3517 8.58C68.0117 11.84 66.6717 12.9 65.9517 12.9ZM76.8613 14.24L78.2213 14L79.1613 0.159999L77.5213 0.439999L77.1813 4.98C76.7013 4.84 76.1413 4.76 75.5813 4.76C73.6613 4.76 71.4813 7.2 71.4813 10.58C71.4813 13.38 72.4813 14.24 73.7013 14.24C74.8813 14.24 75.9613 13.06 76.7413 11.6L76.8613 14.24ZM74.3813 12.9C73.7212 12.9 73.2013 12.24 73.2013 10.38C73.2013 7.4 74.1213 6.02 75.2413 6.02C75.8813 6.02 76.5813 6.18 77.0813 6.36L76.9813 7.8C76.7413 11.26 75.1613 12.9 74.3813 12.9ZM91.9202 14H93.4002L94.2602 1.76H92.7202L92.0802 11.08L87.0002 1.76H85.3402L84.5002 14H86.0402L86.7002 4.5L91.9202 14ZM100.791 14.24L102.151 14L102.751 5.38C102.111 5 101.071 4.76 100.131 4.76C97.4514 4.76 95.6714 7.58 95.6714 10.72C95.6714 13.28 96.5714 14.24 97.7914 14.24C98.6914 14.24 99.9114 13.4 100.711 11.88L100.791 14.24ZM98.5314 12.9C97.8114 12.9 97.3714 12.06 97.3714 10.54C97.3714 7.46 98.3914 5.98 99.6514 5.98C100.091 5.98 100.631 6.1 101.091 6.32L100.931 8.58C100.591 11.84 99.2514 12.9 98.5314 12.9ZM109.641 11.76C108.981 12.32 108.221 12.94 107.341 12.94C106.321 12.94 105.781 12.06 105.781 10.12C105.781 8.46 106.421 5.96 107.761 5.96C108.601 5.96 109.261 6.38 109.861 6.74L110.461 5.46C110.121 5.22 109.301 4.76 108.061 4.76C106.041 4.76 104.061 6.82 104.061 10.54C104.061 13.2 105.221 14.24 106.761 14.24C108.141 14.24 109.441 13.26 110.121 12.64L109.641 11.76ZM112.044 2.04C112.044 2.46 112.684 3 113.044 3C113.424 3 114.104 2.18 114.104 1.82C114.104 1.36 113.444 0.819999 113.104 0.819999C112.744 0.819999 112.044 1.6 112.044 2.04ZM112.024 5.04L111.384 14H113.004L113.664 4.76L112.024 5.04ZM122.339 8.62C122.339 6.06 121.059 4.76 119.319 4.76C116.359 4.76 115.019 7.78 115.019 10.38C115.019 12.94 116.299 14.24 118.039 14.24C120.999 14.24 122.339 11.22 122.339 8.62ZM118.559 13.12C117.339 13.12 116.719 12.14 116.719 10.32C116.719 8.78 117.079 5.88 118.799 5.88C120.079 5.88 120.639 7 120.639 8.68C120.639 10.3 120.279 13.12 118.559 13.12ZM128.069 6.16C128.749 6.16 129.009 6.62 129.009 7.84C129.009 9.02 128.509 13.04 128.429 14H130.069C130.169 12.98 130.729 8.7 130.729 7.12C130.729 5.52 130.109 4.76 128.909 4.76C127.889 4.76 126.769 5.62 125.809 7.36L125.709 4.76L124.329 5.04L123.709 14H125.349L125.629 10.18C126.009 7.28 127.409 6.16 128.069 6.16ZM137.17 14.24L138.53 14L139.13 5.38C138.49 5 137.45 4.76 136.51 4.76C133.83 4.76 132.05 7.58 132.05 10.72C132.05 13.28 132.95 14.24 134.17 14.24C135.07 14.24 136.29 13.4 137.09 11.88L137.17 14.24ZM134.91 12.9C134.19 12.9 133.75 12.06 133.75 10.54C133.75 7.46 134.77 5.98 136.03 5.98C136.47 5.98 137.01 6.1 137.47 6.32L137.31 8.58C136.97 11.84 135.63 12.9 134.91 12.9ZM144 12.3C143.62 12.58 143.2 12.78 142.92 12.78C142.64 12.78 142.4 12.56 142.4 12.1C142.4 11.6 142.58 10.42 143.3 0.159999L141.66 0.439999C140.9 11.58 140.74 12.16 140.74 12.7C140.74 13.74 141.4 14.24 142.14 14.24C142.7 14.24 143.4 13.92 144.26 13.34L144 12.3ZM154.239 14.24L155.599 14L156.539 0.159999L154.899 0.439999L154.559 4.98C154.079 4.84 153.519 4.76 152.959 4.76C151.039 4.76 148.859 7.2 148.859 10.58C148.859 13.38 149.859 14.24 151.079 14.24C152.259 14.24 153.339 13.06 154.119 11.6L154.239 14.24ZM151.759 12.9C151.099 12.9 150.579 12.24 150.579 10.38C150.579 7.4 151.499 6.02 152.619 6.02C153.259 6.02 153.959 6.18 154.459 6.36L154.359 7.8C154.119 11.26 152.539 12.9 151.759 12.9ZM160.322 14.24C161.522 14.24 162.782 13.4 163.562 12.64L163.082 11.76C162.302 12.42 161.522 12.94 160.702 12.94C159.922 12.94 159.222 12.24 159.222 10.34C159.222 10.22 159.222 10.08 159.222 9.96C161.442 9.86 163.702 8.72 163.702 6.8C163.702 5.74 162.922 4.76 161.502 4.76C159.462 4.76 157.522 6.88 157.522 10.66C157.522 13.04 158.622 14.24 160.322 14.24ZM161.122 5.9C161.742 5.9 162.122 6.36 162.122 7C162.122 8.08 161.022 8.9 159.282 9.02C159.502 6.98 160.222 5.9 161.122 5.9ZM176.342 12.2C175.622 12.46 174.662 12.82 173.422 12.82C171.862 12.82 170.142 11.56 170.142 8.66C170.142 4.4 171.822 2.92 173.662 2.92C174.922 2.92 176.122 3.34 176.762 3.56L177.262 2.1C176.562 1.82 175.302 1.52 174.222 1.52C170.162 1.52 168.342 5.16 168.342 8.94C168.342 12.54 170.482 14.24 172.942 14.24C174.422 14.24 175.742 13.76 176.662 13.4L176.342 12.2ZM184.618 8.62C184.618 6.06 183.338 4.76 181.598 4.76C178.638 4.76 177.298 7.78 177.298 10.38C177.298 12.94 178.578 14.24 180.318 14.24C183.278 14.24 184.618 11.22 184.618 8.62ZM180.838 13.12C179.618 13.12 178.998 12.14 178.998 10.32C178.998 8.78 179.358 5.88 181.078 5.88C182.358 5.88 182.918 7 182.918 8.68C182.918 10.3 182.558 13.12 180.838 13.12ZM189.208 12.3C188.828 12.58 188.408 12.78 188.128 12.78C187.848 12.78 187.608 12.56 187.608 12.1C187.608 11.6 187.788 10.42 188.508 0.159999L186.868 0.439999C186.108 11.58 185.948 12.16 185.948 12.7C185.948 13.74 186.608 14.24 187.348 14.24C187.908 14.24 188.608 13.92 189.468 13.34L189.208 12.3ZM197.47 8.62C197.47 6.06 196.19 4.76 194.45 4.76C191.49 4.76 190.15 7.78 190.15 10.38C190.15 12.94 191.43 14.24 193.17 14.24C196.13 14.24 197.47 11.22 197.47 8.62ZM193.69 13.12C192.47 13.12 191.85 12.14 191.85 10.32C191.85 8.78 192.21 5.88 193.93 5.88C195.21 5.88 195.77 7 195.77 8.68C195.77 10.3 195.41 13.12 193.69 13.12ZM200.72 10.66C200.98 7.4 202.5 6.16 203.2 6.16C203.88 6.16 204.04 6.62 204.04 7.84C204.04 9.02 203.6 13.04 203.52 14H205.16C205.22 13.36 205.44 11.46 205.6 9.74C206.04 7.16 207.34 6.16 207.96 6.16C208.64 6.16 208.8 6.62 208.8 7.84C208.8 9.02 208.36 13.04 208.28 14H209.92C210.02 12.98 210.52 8.7 210.52 7.12C210.52 5.52 210 4.76 208.8 4.76C207.8 4.76 206.7 5.6 205.76 7.26C205.76 7.22 205.76 7.16 205.76 7.12C205.76 5.52 205.24 4.76 204.04 4.76C203.02 4.76 201.9 5.62 200.96 7.32L200.98 7.16L200.84 4.76L199.46 5.04L198.84 14H200.46L200.72 10.62V10.66ZM215.769 13C215.149 13 214.489 12.84 213.989 12.66L214.129 10.42C214.529 7.5 215.929 6.1 216.649 6.1C217.309 6.1 217.829 6.76 217.829 8.62C217.829 11.6 216.889 13 215.769 13ZM215.449 14.24C217.369 14.24 219.549 11.8 219.549 8.42C219.549 5.62 218.549 4.76 217.329 4.76C216.169 4.76 215.109 5.92 214.329 7.34L214.809 0.14L213.169 0.42L212.269 14.08L212.869 14.48L213.529 13.86C214.069 14.08 214.729 14.24 215.449 14.24ZM221.571 2.04C221.571 2.46 222.211 3 222.571 3C222.951 3 223.631 2.18 223.631 1.82C223.631 1.36 222.971 0.819999 222.631 0.819999C222.271 0.819999 221.571 1.6 221.571 2.04ZM221.551 5.04L220.911 14H222.531L223.191 4.76L221.551 5.04ZM229.627 14.24L230.987 14L231.587 5.38C230.947 5 229.907 4.76 228.967 4.76C226.287 4.76 224.507 7.58 224.507 10.72C224.507 13.28 225.407 14.24 226.627 14.24C227.527 14.24 228.747 13.4 229.547 11.88L229.627 14.24ZM227.367 12.9C226.647 12.9 226.207 12.06 226.207 10.54C226.207 7.46 227.227 5.98 228.487 5.98C228.927 5.98 229.467 6.1 229.927 6.32L229.767 8.58C229.427 11.84 228.087 12.9 227.367 12.9Z" fill="#FCDC4D" fill-opacity="0.92"/>
</svg>
