<svg width="50" height="50" viewBox="0 0 50 50" fill="none" xmlns="http://www.w3.org/2000/svg">
<g clip-path="url(#clip0_457_180)">
<path d="M50.0004 25.1562C50.0004 11.2625 38.8066 0 25.0004 0C11.1879 0.003125 -0.00585938 11.2625 -0.00585938 25.1594C-0.00585938 37.7125 9.13789 48.1187 21.0879 50.0062V32.4281H14.7441V25.1594H21.0941V19.6125C21.0941 13.3094 24.8285 9.82812 30.5379 9.82812C33.2754 9.82812 36.1348 10.3188 36.1348 10.3188V16.5063H32.9816C29.8785 16.5063 28.9098 18.4469 28.9098 20.4375V25.1562H35.841L34.7348 32.425H28.9066V50.0031C40.8566 48.1156 50.0004 37.7094 50.0004 25.1562Z" fill="#FCDC4D"/>
</g>
<defs>
<clipPath id="clip0_457_180">
<rect width="50" height="50" fill="white"/>
</clipPath>
</defs>
</svg>
