<svg width="50" height="41" viewBox="0 0 50 41" fill="none" xmlns="http://www.w3.org/2000/svg">
<mask id="mask0_1640_1110" style="mask-type:alpha" maskUnits="userSpaceOnUse" x="0" y="0" width="50" height="41">
<path d="M15.7063 40.6272C34.575 40.6272 44.8969 24.9928 44.8969 11.4584C44.8969 11.0209 44.8969 10.5772 44.8781 10.1397C46.8877 8.68493 48.6221 6.88389 50 4.82092C48.1229 5.64857 46.1336 6.19406 44.0969 6.43967C46.2423 5.15728 47.8491 3.13957 48.6187 0.761541C46.6031 1.95568 44.3969 2.79396 42.0969 3.23967C40.5506 1.59286 38.5044 0.501909 36.2753 0.135783C34.0461 -0.230343 31.7585 0.148796 29.7667 1.21447C27.7749 2.28014 26.19 3.97288 25.2577 6.03048C24.3253 8.08808 24.0974 10.3957 24.6094 12.5959C20.5304 12.3914 16.5401 11.3318 12.897 9.48574C9.25397 7.63972 6.03964 5.04855 3.4625 1.88029C2.15419 4.13993 1.75492 6.81279 2.34577 9.35612C2.93662 11.8995 4.4733 14.1226 6.64375 15.574C5.01731 15.5188 3.42663 15.082 2 14.299V14.4397C2.0028 16.8068 2.82284 19.1004 4.32148 20.9327C5.82013 22.765 7.90546 24.0236 10.225 24.4959C9.34457 24.7385 8.43509 24.8594 7.52188 24.8553C6.87807 24.8572 6.23556 24.7976 5.60313 24.6772C6.25871 26.7148 7.53523 28.4964 9.2539 29.7724C10.9726 31.0484 13.0473 31.7548 15.1875 31.7928C11.5517 34.6484 7.06063 36.1972 2.4375 36.1897C1.62288 36.1931 0.808822 36.1461 0 36.049C4.69223 39.0405 10.1416 40.6289 15.7063 40.6272Z" fill="#FCDC4D"/>
</mask>
<g mask="url(#mask0_1640_1110)">
<path d="M41.7077 -9H4.86395C-0.78871 -9 -5.37109 -4.44029 -5.37109 1.1844V37.8458C-5.37109 43.4705 -0.78871 48.0302 4.86395 48.0302H41.7077C47.3603 48.0302 51.9427 43.4705 51.9427 37.8458V1.1844C51.9427 -4.44029 47.3603 -9 41.7077 -9Z" fill="#29A9E1"/>
</g>
</svg>
