<svg width="50" height="50" viewBox="0 0 50 50" fill="none" xmlns="http://www.w3.org/2000/svg">
<mask id="mask0_1640_1114" style="mask-type:alpha" maskUnits="userSpaceOnUse" x="0" y="0" width="50" height="50">
<g clip-path="url(#clip0_1640_1114)">
<path d="M49.9997 25.1531C49.9997 11.2593 38.806 -0.00317383 24.9997 -0.00317383C11.1872 -4.8828e-05 -0.00653076 11.2593 -0.00653076 25.1562C-0.00653076 37.7093 9.13722 48.1156 21.0872 50.0031V32.425H14.7435V25.1562H21.0935V19.6093C21.0935 13.3062 24.8278 9.82495 30.5372 9.82495C33.2747 9.82495 36.1341 10.3156 36.1341 10.3156V16.5031H32.981C29.8778 16.5031 28.9091 18.4437 28.9091 20.4343V25.1531H35.8403L34.7341 32.4218H28.906V49.9999C40.856 48.1124 49.9997 37.7062 49.9997 25.1531Z" fill="#FCDC4D"/>
</g>
</mask>
<g mask="url(#mask0_1640_1114)">
<path d="M43.0788 -4H6.23504C0.582383 -4 -4 0.559711 -4 6.1844V42.8458C-4 48.4705 0.582383 53.0302 6.23504 53.0302H43.0788C48.7314 53.0302 53.3138 48.4705 53.3138 42.8458V6.1844C53.3138 0.559711 48.7314 -4 43.0788 -4Z" fill="#3E5C9A"/>
</g>
<defs>
<clipPath id="clip0_1640_1114">
<rect width="50" height="50" fill="white"/>
</clipPath>
</defs>
</svg>
