<?xml version="1.0" encoding="UTF-8" standalone="no"?>
<svg
   id="Logo"
   viewBox="0 0 700 700"
   version="1.1"
   sodipodi:docname="Facebook MD-A.svg"
   inkscape:version="1.3.2 (091e20e, 2023-11-25, custom)"
   xmlns:inkscape="http://www.inkscape.org/namespaces/inkscape"
   xmlns:sodipodi="http://sodipodi.sourceforge.net/DTD/sodipodi-0.dtd"
   xmlns="http://www.w3.org/2000/svg"
   xmlns:svg="http://www.w3.org/2000/svg">
  <sodipodi:namedview
     id="namedview1"
     pagecolor="#ffffff"
     bordercolor="#000000"
     borderopacity="0.25"
     inkscape:showpageshadow="2"
     inkscape:pageopacity="0.0"
     inkscape:pagecheckerboard="0"
     inkscape:deskcolor="#d1d1d1"
     inkscape:zoom="1.7014286"
     inkscape:cx="350"
     inkscape:cy="350"
     inkscape:window-width="2560"
     inkscape:window-height="1387"
     inkscape:window-x="-8"
     inkscape:window-y="-8"
     inkscape:window-maximized="1"
     inkscape:current-layer="Logo" />
  <defs
     id="defs1">
    <style
       id="style1">
      .cls-1 {
        fill: #0866ff;
      }
    </style>
  </defs>
  <path
     class="cls-1"
     d="M600,350c0-138.07-111.93-250-250-250s-250,111.93-250,250c0,117.24,80.72,215.61,189.6,242.64v-166.24h-51.54s-.01,0-.01,0v-76.4h51.55v-32.92c0-85.09,38.51-124.53,122.05-124.53,0,0,0,0,0,0,0,0,0,0,0,0,.48,0,.97,0,1.46,0,.02,0,.03,0,.05,0,1.35.02,2.77.05,4.24.11.23,0,.45.01.67.02.03,0,.05,0,.08,0,14.31.57,33.49,2.8,44.36,5.21,1.28.28,2.45.57,3.48.85v69.25s0,0-.01,0h0c-5.9-.62-16.15-.93-28.87-.93-40.99,0-56.83,15.53-56.83,55.9v27.02h81.66l-14.03,76.4h-67.63v171.77c123.79-14.95,219.71-120.35,219.71-248.17h-.01Z"
     id="path1" />
</svg>
