<?xml version="1.0" encoding="UTF-8"?><svg id="uuid-d4e86222-78d3-474d-8b32-d5ecc1ab82eb" xmlns="http://www.w3.org/2000/svg" viewBox="0 0 907.32 904"><path id="uuid-67d0b8cc-1e22-409f-9ac9-b283af0a21e4" d="M907.32,453.66C907.32,203.11,704.21,0,453.66,0S0,203.11,0,453.66c0,212.76,146.47,391.28,344.07,440.3v-301.67h-93.55v-138.63h93.55v-59.74c0-154.41,69.88-225.98,221.47-225.98,28.74,0,78.33,5.64,98.62,11.27v125.67c-10.71-1.13-29.3-1.69-52.41-1.69-74.39,0-103.13,28.18-103.13,101.44v49.03h148.18l-25.46,138.63h-122.72v311.71c224.63-27.13,398.7-218.39,398.7-450.34Z" style="fill:#0866ff;"/></svg>