<svg width="94" height="30" viewBox="0 0 94 30" fill="none" xmlns="http://www.w3.org/2000/svg">
<path d="M8.20678 19.3309L10.104 18.9338V8.74153L7.32433 9.13863V16.7498C6.86104 16.9924 6.13302 17.2351 5.60355 17.2351C4.74316 17.2351 3.94896 16.838 3.94896 15.4261V8.74153L1.16925 9.13863V16.3306C1.16925 18.3382 2.49292 19.3309 4.324 19.3309C5.42706 19.3309 6.68455 18.8235 7.58906 18.3602L8.20678 19.3309ZM17.0682 10.8373C17.9285 10.8373 18.7227 11.2344 18.7227 12.6464V19H21.5025V11.7419C21.5025 9.73428 20.1788 8.74153 18.3477 8.74153C17.2446 8.74153 15.9872 9.24894 15.0826 9.73428L14.5532 8.74153L12.5677 9.13863V19H15.3474V11.3227C15.8107 11.08 16.5387 10.8373 17.0682 10.8373ZM23.591 5.82945C23.591 6.44716 24.8265 7.30755 25.4001 7.30755C25.9516 7.30755 27.0326 6.20449 27.0326 5.58677C27.0326 4.947 25.7751 4.08661 25.2236 4.08661C24.6279 4.08661 23.591 5.21173 23.591 5.82945ZM23.8999 9.11657V19H26.6796V8.71947L23.8999 9.11657ZM33.6572 10.8373C34.5175 10.8373 35.2014 11.2344 35.2014 12.6464V19H37.9812V11.7419C37.9812 11.5874 37.9812 11.433 37.9591 11.3006C38.4224 11.058 39.1283 10.8373 39.6358 10.8373C40.4961 10.8373 41.18 11.2344 41.18 12.6464V19H43.9598V11.7419C43.9598 9.73428 42.7464 8.74153 40.9153 8.74153C39.724 8.74153 38.3562 9.31512 37.4517 9.84459C36.9222 9.09451 36.0398 8.74153 34.9367 8.74153C33.8337 8.74153 32.5762 9.24894 31.6717 9.73428L31.1422 8.74153L29.1567 9.13863V19H31.9364V11.3227C32.3997 11.08 33.1277 10.8373 33.6572 10.8373ZM50.2091 10.5064C51.3342 10.5064 51.952 11.2124 51.952 12.6684H48.5104C48.6648 11.0138 49.2164 10.5064 50.2091 10.5064ZM54.5552 18.4485L54.114 16.6394C53.2756 16.9704 52.2167 17.213 51.1577 17.213C49.9003 17.213 48.5766 16.5733 48.4442 14.301H54.4007C54.4449 13.9921 54.489 13.3303 54.489 12.889C54.489 10.705 53.6065 8.74153 50.6503 8.74153C47.6941 8.74153 45.7527 10.8153 45.7527 14.301C45.7527 17.8969 47.9809 19.3309 50.54 19.3309C52.1284 19.3309 53.4962 18.9559 54.5552 18.4485ZM63.5789 19.3309L65.5644 18.9338V3.71157L62.7847 4.10867V8.91802C62.1891 8.80771 61.5052 8.74153 60.7551 8.74153C58.5269 8.74153 55.8354 10.4844 55.8354 14.2789C55.8354 17.8308 57.8209 19.3089 59.8947 19.3309C60.9536 19.353 62.2111 18.7353 62.9833 18.272L63.5789 19.3309ZM61.086 17.2572C59.9829 17.2572 58.6593 16.5512 58.6593 14.0803C58.6593 11.7198 59.5638 10.7932 60.8433 10.7932C61.5493 10.7932 62.2332 10.9256 62.7847 11.1021V16.8601C62.2552 17.1027 61.6596 17.2572 61.086 17.2572ZM67.735 5.82945C67.735 6.44716 68.9705 7.30755 69.5441 7.30755C70.0956 7.30755 71.1766 6.20449 71.1766 5.58677C71.1766 4.947 69.9191 4.08661 69.3676 4.08661C68.7719 4.08661 67.735 5.21173 67.735 5.82945ZM68.0439 9.11657V19H70.8236V8.71947L68.0439 9.11657ZM82.7649 13.8377C82.7649 10.4182 80.9559 8.74153 78.0659 8.74153C74.845 8.74153 72.683 10.8153 72.683 14.2348C72.683 17.6543 74.6243 19.3309 77.382 19.3309C80.6029 19.3309 82.7649 17.2572 82.7649 13.8377ZM79.9411 14.301C79.9411 16.6615 79.169 17.3675 77.9556 17.3675C76.5657 17.3675 75.5068 16.6174 75.5068 13.7715C75.5068 11.4109 76.2789 10.705 77.4923 10.705C78.8822 10.705 79.9411 11.4551 79.9411 14.301ZM87.5676 19.3309C89.3325 19.3309 91.7813 18.3382 91.7813 16.0217C91.7813 14.7422 91.0753 13.7494 89.4648 13.22L87.9867 12.7346C86.994 12.4037 86.7513 12.0507 86.7513 11.5433C86.7513 11.058 87.1263 10.6829 88.0088 10.6829C88.9133 10.6829 90.0825 10.9697 91.0974 11.3227L91.5606 9.20481C90.8988 8.9842 89.7957 8.74153 88.1853 8.74153C86.0895 8.74153 84.1922 10.0211 84.1922 11.8963C84.1922 13.3523 85.0085 14.1245 86.3983 14.6098L87.9426 15.1393C88.8912 15.4702 89.1339 15.9556 89.1339 16.4409C89.1339 16.9483 88.7368 17.3233 87.9426 17.3233C86.6851 17.3233 85.5379 16.9704 84.4569 16.5733L83.9495 18.7132C84.7217 19 85.8909 19.3309 87.5676 19.3309Z" fill="white"/>
<path d="M3.97717 28.1322L4.52516 28.0175V25.0737L3.7223 25.1884V27.3867C3.58849 27.4568 3.37821 27.5269 3.22528 27.5269C2.97678 27.5269 2.74739 27.4122 2.74739 27.0044V25.0737L1.94452 25.1884V27.2656C1.94452 27.8455 2.32684 28.1322 2.85571 28.1322C3.17431 28.1322 3.53751 27.9856 3.79876 27.8518L3.97717 28.1322ZM6.5366 25.679C6.78511 25.679 7.0145 25.7937 7.0145 26.2015V28.0366H7.81736V25.9403C7.81736 25.3604 7.43505 25.0737 6.90618 25.0737C6.58758 25.0737 6.22438 25.2202 5.96313 25.3604L5.8102 25.0737L5.23673 25.1884V28.0366H6.03959V25.8192C6.1734 25.7491 6.38368 25.679 6.5366 25.679ZM8.42061 24.2326C8.42061 24.411 8.77744 24.6595 8.94311 24.6595C9.10241 24.6595 9.41463 24.3409 9.41463 24.1625C9.41463 23.9777 9.05143 23.7292 8.89213 23.7292C8.72009 23.7292 8.42061 24.0542 8.42061 24.2326ZM8.50982 25.182V28.0366H9.31268V25.0673L8.50982 25.182ZM12.0863 28.1322L12.6597 28.0175V23.6209L11.8569 23.7356V25.1246C11.6848 25.0928 11.4873 25.0737 11.2707 25.0737C10.6271 25.0737 9.84972 25.5771 9.84972 26.673C9.84972 27.6989 10.4232 28.1258 11.0222 28.1322C11.328 28.1386 11.6912 27.9602 11.9142 27.8263L12.0863 28.1322ZM11.3662 27.5332C11.0476 27.5332 10.6653 27.3293 10.6653 26.6157C10.6653 25.9339 10.9266 25.6663 11.2961 25.6663C11.5 25.6663 11.6976 25.7045 11.8569 25.7555V27.4185C11.704 27.4886 11.5319 27.5332 11.3662 27.5332ZM15.039 28.1322L15.587 28.0175V26.0422C15.587 25.3859 15.2174 25.0737 14.5674 25.0737C14.1087 25.0737 13.7136 25.1884 13.2931 25.3413L13.446 25.8956C13.7136 25.8001 14.0513 25.7045 14.3253 25.7045C14.6375 25.7045 14.8032 25.8447 14.8032 26.2015V26.3226C13.6435 26.3672 13.1975 26.7495 13.1975 27.3102C13.1975 27.8136 13.5734 28.1322 14.0704 28.1322C14.3317 28.1322 14.6439 27.9793 14.8797 27.8263L15.039 28.1322ZM14.3253 27.5715C14.0832 27.5715 13.9111 27.4185 13.9111 27.1892C13.9111 26.9534 14.0895 26.8196 14.4464 26.8196C14.5611 26.8196 14.6949 26.826 14.8032 26.8451V27.4313C14.6503 27.5077 14.4591 27.5715 14.3253 27.5715ZM18.34 28.1322L18.9135 28.0175V23.6209L18.1106 23.7356V25.1246C17.9385 25.0928 17.741 25.0737 17.5244 25.0737C16.8808 25.0737 16.1034 25.5771 16.1034 26.673C16.1034 27.6989 16.6769 28.1258 17.2759 28.1322C17.5817 28.1386 17.9449 27.9602 18.1679 27.8263L18.34 28.1322ZM17.62 27.5332C17.3014 27.5332 16.919 27.3293 16.919 26.6157C16.919 25.9339 17.1803 25.6663 17.5499 25.6663C17.7538 25.6663 17.9513 25.7045 18.1106 25.7555V27.4185C17.9577 27.4886 17.7856 27.5332 17.62 27.5332ZM23.0692 28.1322L23.6426 28.0175V23.6209L22.8398 23.7356V25.1246C22.6677 25.0928 22.4702 25.0737 22.2535 25.0737C21.61 25.0737 20.8326 25.5771 20.8326 26.673C20.8326 27.6989 21.4061 28.1258 22.005 28.1322C22.3109 28.1386 22.6741 27.9602 22.8971 27.8263L23.0692 28.1322ZM22.3491 27.5332C22.0305 27.5332 21.6482 27.3293 21.6482 26.6157C21.6482 25.9339 21.9095 25.6663 22.279 25.6663C22.4829 25.6663 22.6805 25.7045 22.8398 25.7555V27.4185C22.6868 27.4886 22.5148 27.5332 22.3491 27.5332ZM25.4675 25.5834C25.7925 25.5834 25.9709 25.7873 25.9709 26.2079H24.9769C25.0215 25.73 25.1808 25.5834 25.4675 25.5834ZM26.7228 27.8773L26.5953 27.3548C26.3532 27.4504 26.0473 27.5205 25.7415 27.5205C25.3783 27.5205 24.996 27.3357 24.9577 26.6794H26.6782C26.6909 26.5902 26.7037 26.399 26.7037 26.2716C26.7037 25.6408 26.4488 25.0737 25.5949 25.0737C24.7411 25.0737 24.1804 25.6726 24.1804 26.6794C24.1804 27.718 24.8239 28.1322 25.5631 28.1322C26.0219 28.1322 26.4169 28.0239 26.7228 27.8773ZM29.9522 25.679C30.2008 25.679 30.3983 25.7937 30.3983 26.2015V28.0366H31.2011V25.9403C31.2011 25.8956 31.2011 25.851 31.1948 25.8128C31.3286 25.7427 31.5325 25.679 31.679 25.679C31.9276 25.679 32.1251 25.7937 32.1251 26.2015V28.0366H32.9279V25.9403C32.9279 25.3604 32.5775 25.0737 32.0486 25.0737C31.7045 25.0737 31.3095 25.2393 31.0482 25.3923C30.8953 25.1756 30.6404 25.0737 30.3218 25.0737C30.0032 25.0737 29.64 25.2202 29.3788 25.3604L29.2258 25.0737L28.6524 25.1884V28.0366H29.4552V25.8192C29.589 25.7491 29.7993 25.679 29.9522 25.679ZM34.7329 25.5834C35.0579 25.5834 35.2363 25.7873 35.2363 26.2079H34.2423C34.2869 25.73 34.4462 25.5834 34.7329 25.5834ZM35.9882 27.8773L35.8608 27.3548C35.6186 27.4504 35.3128 27.5205 35.0069 27.5205C34.6437 27.5205 34.2614 27.3357 34.2232 26.6794H35.9436C35.9564 26.5902 35.9691 26.399 35.9691 26.2716C35.9691 25.6408 35.7142 25.0737 34.8604 25.0737C34.0065 25.0737 33.4458 25.6726 33.4458 26.6794C33.4458 27.718 34.0894 28.1322 34.8285 28.1322C35.2873 28.1322 35.6824 28.0239 35.9882 27.8773ZM38.5945 28.1322L39.168 28.0175V23.6209L38.3652 23.7356V25.1246C38.1931 25.0928 37.9956 25.0737 37.7789 25.0737C37.1354 25.0737 36.358 25.5771 36.358 26.673C36.358 27.6989 36.9315 28.1258 37.5304 28.1322C37.8363 28.1386 38.1995 27.9602 38.4225 27.8263L38.5945 28.1322ZM37.8745 27.5332C37.5559 27.5332 37.1736 27.3293 37.1736 26.6157C37.1736 25.9339 37.4348 25.6663 37.8044 25.6663C38.0083 25.6663 38.2059 25.7045 38.3652 25.7555V27.4185C38.2122 27.4886 38.0402 27.5332 37.8745 27.5332ZM39.795 24.2326C39.795 24.411 40.1518 24.6595 40.3175 24.6595C40.4768 24.6595 40.789 24.3409 40.789 24.1625C40.789 23.9777 40.4258 23.7292 40.2665 23.7292C40.0944 23.7292 39.795 24.0542 39.795 24.2326ZM39.8842 25.182V28.0366H40.687V25.0673L39.8842 25.182ZM44.136 26.5456C44.136 25.5579 43.6135 25.0737 42.7788 25.0737C41.8485 25.0737 41.2241 25.6726 41.2241 26.6603C41.2241 27.6479 41.7848 28.1322 42.5813 28.1322C43.5116 28.1322 44.136 27.5332 44.136 26.5456ZM43.3204 26.6794C43.3204 27.3612 43.0974 27.5651 42.747 27.5651C42.3455 27.5651 42.0397 27.3485 42.0397 26.5265C42.0397 25.8447 42.2627 25.6408 42.6131 25.6408C43.0146 25.6408 43.3204 25.8574 43.3204 26.6794ZM45.5232 28.1322C46.0329 28.1322 46.7402 27.8455 46.7402 27.1764C46.7402 26.8068 46.5363 26.5201 46.0712 26.3672L45.6443 26.227C45.3575 26.1314 45.2874 26.0295 45.2874 25.8829C45.2874 25.7427 45.3957 25.6344 45.6506 25.6344C45.9119 25.6344 46.2496 25.7172 46.5427 25.8192L46.6765 25.2075C46.4853 25.1438 46.1668 25.0737 45.7016 25.0737C45.0963 25.0737 44.5483 25.4432 44.5483 25.9849C44.5483 26.4054 44.784 26.6284 45.1855 26.7686L45.6315 26.9215C45.9055 27.0171 45.9756 27.1573 45.9756 27.2975C45.9756 27.444 45.8609 27.5524 45.6315 27.5524C45.2683 27.5524 44.937 27.4504 44.6247 27.3357L44.4782 27.9538C44.7012 28.0366 45.0389 28.1322 45.5232 28.1322ZM50.7037 28.1322L51.2772 28.0175V23.6209L50.4743 23.7356V25.1246C50.3023 25.0928 50.1048 25.0737 49.8881 25.0737C49.2445 25.0737 48.4672 25.5771 48.4672 26.673C48.4672 27.6989 49.0406 28.1258 49.6396 28.1322C49.9455 28.1386 50.3087 27.9602 50.5317 27.8263L50.7037 28.1322ZM49.9837 27.5332C49.6651 27.5332 49.2828 27.3293 49.2828 26.6157C49.2828 25.9339 49.544 25.6663 49.9136 25.6663C50.1175 25.6663 50.315 25.7045 50.4743 25.7555V27.4185C50.3214 27.4886 50.1494 27.5332 49.9837 27.5332ZM53.1021 25.5834C53.427 25.5834 53.6054 25.7873 53.6054 26.2079H52.6114C52.656 25.73 52.8153 25.5834 53.1021 25.5834ZM54.3573 27.8773L54.2299 27.3548C53.9878 27.4504 53.6819 27.5205 53.3761 27.5205C53.0129 27.5205 52.6305 27.3357 52.5923 26.6794H54.3127C54.3255 26.5902 54.3382 26.399 54.3382 26.2716C54.3382 25.6408 54.0833 25.0737 53.2295 25.0737C52.3757 25.0737 51.8149 25.6726 51.8149 26.6794C51.8149 27.718 52.4585 28.1322 53.1976 28.1322C53.6564 28.1322 54.0515 28.0239 54.3573 27.8773ZM58.3833 27.3803C58.1922 27.4568 57.9628 27.5077 57.727 27.5077C57.3192 27.5077 56.9241 27.2465 56.9241 26.5711C56.9241 25.9339 57.1918 25.679 57.6314 25.679C57.8289 25.679 58.1539 25.7555 58.3132 25.8319L58.4534 25.2202C58.2941 25.1438 58.0201 25.0737 57.625 25.0737C56.8031 25.0737 56.1085 25.6408 56.1085 26.6985C56.1085 27.6607 56.7393 28.1322 57.5167 28.1322C57.8544 28.1322 58.2113 28.043 58.4725 27.9283L58.3833 27.3803ZM61.6962 26.5456C61.6962 25.5579 61.1737 25.0737 60.339 25.0737C59.4087 25.0737 58.7842 25.6726 58.7842 26.6603C58.7842 27.6479 59.345 28.1322 60.1415 28.1322C61.0718 28.1322 61.6962 27.5332 61.6962 26.5456ZM60.8806 26.6794C60.8806 27.3612 60.6576 27.5651 60.3071 27.5651C59.9057 27.5651 59.5999 27.3485 59.5999 26.5265C59.5999 25.8447 59.8229 25.6408 60.1733 25.6408C60.5748 25.6408 60.8806 25.8574 60.8806 26.6794ZM63.5294 25.679C63.7779 25.679 63.9754 25.7937 63.9754 26.2015V28.0366H64.7783V25.9403C64.7783 25.8956 64.7783 25.851 64.7719 25.8128C64.9057 25.7427 65.1096 25.679 65.2562 25.679C65.5047 25.679 65.7022 25.7937 65.7022 26.2015V28.0366H66.5051V25.9403C66.5051 25.3604 66.1546 25.0737 65.6258 25.0737C65.2817 25.0737 64.8866 25.2393 64.6254 25.3923C64.4724 25.1756 64.2176 25.0737 63.899 25.0737C63.5804 25.0737 63.2172 25.2202 62.9559 25.3604L62.803 25.0737L62.2295 25.1884V28.0366H63.0324V25.8192C63.1662 25.7491 63.3765 25.679 63.5294 25.679ZM69.2149 28.1322L69.7629 28.0175V25.0737L68.96 25.1884V27.3867C68.8262 27.4568 68.616 27.5269 68.463 27.5269C68.2145 27.5269 67.9851 27.4122 67.9851 27.0044V25.0737L67.1823 25.1884V27.2656C67.1823 27.8455 67.5646 28.1322 68.0935 28.1322C68.412 28.1322 68.7752 27.9856 69.0365 27.8518L69.2149 28.1322ZM71.7743 25.679C72.0228 25.679 72.2522 25.7937 72.2522 26.2015V28.0366H73.0551V25.9403C73.0551 25.3604 72.6728 25.0737 72.1439 25.0737C71.8253 25.0737 71.4621 25.2202 71.2009 25.3604L71.0479 25.0737L70.4745 25.1884V28.0366H71.2773V25.8192C71.4111 25.7491 71.6214 25.679 71.7743 25.679ZM73.6583 24.2326C73.6583 24.411 74.0152 24.6595 74.1808 24.6595C74.3401 24.6595 74.6524 24.3409 74.6524 24.1625C74.6524 23.9777 74.2892 23.7292 74.1299 23.7292C73.9578 23.7292 73.6583 24.0542 73.6583 24.2326ZM73.7476 25.182V28.0366H74.5504V25.0673L73.7476 25.182ZM77.3622 27.3803C77.1711 27.4568 76.9417 27.5077 76.7059 27.5077C76.2981 27.5077 75.9031 27.2465 75.9031 26.5711C75.9031 25.9339 76.1707 25.679 76.6104 25.679C76.8079 25.679 77.1329 25.7555 77.2921 25.8319L77.4323 25.2202C77.273 25.1438 76.999 25.0737 76.604 25.0737C75.782 25.0737 75.0875 25.6408 75.0875 26.6985C75.0875 27.6607 75.7183 28.1322 76.4957 28.1322C76.8334 28.1322 77.1902 28.043 77.4514 27.9283L77.3622 27.3803ZM79.6047 28.1322L80.1527 28.0175V26.0422C80.1527 25.3859 79.7831 25.0737 79.1331 25.0737C78.6744 25.0737 78.2793 25.1884 77.8588 25.3413L78.0117 25.8956C78.2793 25.8001 78.617 25.7045 78.891 25.7045C79.2032 25.7045 79.3689 25.8447 79.3689 26.2015V26.3226C78.2092 26.3672 77.7632 26.7495 77.7632 27.3102C77.7632 27.8136 78.1391 28.1322 78.6361 28.1322C78.8974 28.1322 79.2096 27.9793 79.4454 27.8263L79.6047 28.1322ZM78.891 27.5715C78.6489 27.5715 78.4768 27.4185 78.4768 27.1892C78.4768 26.9534 78.6552 26.8196 79.0121 26.8196C79.1268 26.8196 79.2606 26.826 79.3689 26.8451V27.4313C79.216 27.5077 79.0248 27.5715 78.891 27.5715ZM82.9439 27.3803C82.7528 27.4568 82.5234 27.5077 82.2876 27.5077C81.8798 27.5077 81.4847 27.2465 81.4847 26.5711C81.4847 25.9339 81.7524 25.679 82.192 25.679C82.3896 25.679 82.7145 25.7555 82.8738 25.8319L83.014 25.2202C82.8547 25.1438 82.5807 25.0737 82.1857 25.0737C81.3637 25.0737 80.6691 25.6408 80.6691 26.6985C80.6691 27.6607 81.3 28.1322 82.0773 28.1322C82.415 28.1322 82.7719 28.043 83.0331 27.9283L82.9439 27.3803ZM83.4341 24.2326C83.4341 24.411 83.7909 24.6595 83.9566 24.6595C84.1159 24.6595 84.4281 24.3409 84.4281 24.1625C84.4281 23.9777 84.0649 23.7292 83.9056 23.7292C83.7335 23.7292 83.4341 24.0542 83.4341 24.2326ZM83.5233 25.182V28.0366H84.3261V25.0673L83.5233 25.182ZM85.6915 24.8124H86.3478L87.3227 23.9586L86.5135 23.812L85.6915 24.8124ZM87.7751 26.5456C87.7751 25.5579 87.2526 25.0737 86.4179 25.0737C85.4876 25.0737 84.8632 25.6726 84.8632 26.6603C84.8632 27.6479 85.4239 28.1322 86.2204 28.1322C87.1507 28.1322 87.7751 27.5332 87.7751 26.5456ZM86.9595 26.6794C86.9595 27.3612 86.7365 27.5651 86.3861 27.5651C85.9846 27.5651 85.6788 27.3485 85.6788 26.5265C85.6788 25.8447 85.9018 25.6408 86.2522 25.6408C86.6537 25.6408 86.9595 25.8574 86.9595 26.6794ZM89.6083 25.679C89.8568 25.679 90.0862 25.7937 90.0862 26.2015V28.0366H90.8891V25.9403C90.8891 25.3604 90.5068 25.0737 89.9779 25.0737C89.6593 25.0737 89.2961 25.2202 89.0348 25.3604L88.8819 25.0737L88.3084 25.1884V28.0366H89.1113V25.8192C89.2451 25.7491 89.4554 25.679 89.6083 25.679Z" fill="white"/>
</svg>
