<svg width="146" height="36" viewBox="0 0 146 36" fill="none" xmlns="http://www.w3.org/2000/svg">
<path d="M3.93299 17.7161V25.0629H0V6.48438H6.34757C10.3709 6.48438 12.7554 8.36705 12.7554 11.5847C12.7554 13.8617 11.4434 15.5619 9.62674 16.593L14.1562 25.0629H9.83465L6.25868 17.6855C5.87154 17.7161 5.48439 17.7455 5.09583 17.7455C4.82771 17.7469 4.38035 17.7469 3.93299 17.7161ZM8.76213 12.4654C8.76213 10.5229 7.62942 9.15577 4.97683 9.15577C4.61981 9.15577 4.26134 9.15577 3.93444 9.18644V15.0448C4.50079 15.1062 5.09727 15.1354 5.84142 15.1354C7.36129 15.1354 8.76213 14.316 8.76213 12.4654Z" fill="#FCDC4D"/>
<path d="M22.8304 24.0575C21.7278 24.7864 20.2666 25.5151 19.045 25.5151C16.7207 25.5151 14.9629 23.9976 14.9629 21.5993C14.9629 18.9277 17.0491 17.1065 22.4734 16.8932V16.3162C22.4734 14.6161 21.699 13.9486 20.2379 13.9486C18.9562 13.9486 17.3774 14.4043 16.1257 14.86L15.4103 12.2192C17.3774 11.4904 19.2242 10.9441 21.3708 10.9441C24.4105 10.9441 26.1397 12.431 26.1397 15.5582V24.9689L23.5774 25.5151L22.8304 24.0575ZM22.4734 22.1748V19.3821C21.9672 19.2915 21.3406 19.2608 20.8043 19.2608C19.1354 19.2608 18.3008 19.8977 18.3008 21.0208C18.3008 22.1135 19.1052 22.8422 20.2379 22.8422C20.8646 22.8437 21.7578 22.54 22.4734 22.1748Z" fill="#FCDC4D"/>
<path d="M37.9094 24.0573C36.8655 24.6941 35.1679 25.5442 33.7369 25.515C30.9352 25.4843 28.2539 23.4511 28.2539 18.5626C28.2539 13.3409 31.8901 10.9425 34.8998 10.9425C35.9135 10.9425 36.8369 11.0331 37.6412 11.185V4.56702L41.3964 4.02075V24.9673L38.7138 25.5135L37.9094 24.0573ZM37.6412 22.1146V14.1909C36.8957 13.9485 35.9723 13.7659 35.0188 13.7659C33.291 13.7659 32.068 15.041 32.068 18.2894C32.068 21.6896 33.8559 22.661 35.3456 22.661C36.1215 22.661 36.9257 22.4492 37.6412 22.1146Z" fill="#FCDC4D"/>
<path d="M46.2227 4.54468C46.9684 4.54468 48.666 5.72923 48.666 6.60851C48.666 7.45858 47.2064 8.97614 46.4607 8.97614C45.6865 8.97614 44.0176 7.79159 44.0176 6.94152C44.0176 6.09291 45.4183 4.54468 46.2227 4.54468ZM48.19 10.9187V25.0662H44.4348V11.4665L48.19 10.9187Z" fill="#FCDC4D"/>
<path d="M56.744 25.5151C53.019 25.5151 50.3965 23.2074 50.3965 18.5027C50.3965 13.7967 53.3172 10.9441 57.6674 10.9441C61.5718 10.9441 64.0149 13.2519 64.0149 17.9565C64.0164 22.6612 61.0957 25.5151 56.744 25.5151ZM56.8932 13.6448C55.2543 13.6448 54.2104 14.6161 54.2104 17.8644C54.2104 21.7804 55.6414 22.8131 57.5182 22.8131C59.1573 22.8131 60.201 21.8418 60.201 18.5933C60.201 14.6774 58.7701 13.6448 56.8932 13.6448Z" fill="#FCDC4D"/>
<path d="M128.626 24.996V10.9772H132.95V21.546H138.354L137.129 24.996H128.626ZM117.53 19.7115H120.556C119.836 17.2899 119.619 16.0425 119.619 14.5746H118.538C118.54 16.0425 118.251 17.2899 117.53 19.7115ZM111.911 24.996V23.7485L115.586 10.9787H122.791L126.393 23.7485V24.996H122.214C121.926 24.1152 121.71 23.382 121.493 22.6472H116.665L115.873 24.996H111.911ZM95.2669 24.996V10.9772H101.319C104.706 17.3629 104.778 18.6832 104.778 20.2986H105.859V10.9772H109.677V24.996H103.913C100.238 18.4642 100.166 17.1424 100.166 15.3809H99.157V24.996H95.2669ZM85.1799 25.364C81.1452 25.364 78.9844 23.4565 78.9844 20.3001V10.9787H83.3791V19.1258C83.3791 20.8143 84.0988 21.6951 85.6846 21.6951C87.2705 21.6951 87.9902 21.1079 87.9902 19.64V10.9802H92.0968V19.7144C92.0968 23.0154 89.503 25.364 85.1799 25.364ZM69.6602 0.149898V18.1137C69.6602 29.2448 76.3676 36 87.2948 36H146V18.1122C146 7.05847 139.293 0.148438 128.366 0.148438H69.6602V0.149898Z" fill="#FCDC4D"/>
</svg>
