<svg width="143" height="161" viewBox="0 0 143 161" fill="none" xmlns="http://www.w3.org/2000/svg">
<path d="M32.4954 101.794H33.7294V106.101C33.7294 107.434 34.3943 107.912 35.6128 107.912C36.3889 107.912 36.9451 107.447 36.9451 106.44V101.784H38.1351V106.174C38.1351 107.915 37.1288 108.88 35.1885 108.88C33.5147 108.88 32.4954 108.086 32.4954 106.484V101.794ZM45.8729 108.88L42.1605 103.566V108.74H41.0274V101.797H42.2744L45.803 106.95V101.807H46.9206V108.681L45.8729 108.88ZM51.2021 108.738H49.9552V101.794H51.2021V108.738ZM53.4425 101.866L54.7179 101.654L56.7151 107.405L58.6553 101.794H59.9178L57.2687 108.681L56.0502 108.88L53.4425 101.866ZM62.1685 101.794H66.5173L66.4061 102.715L63.4155 102.674V104.743H66.1784L66.0516 105.579L63.4155 105.535V107.83L66.7165 107.788L66.6027 108.738H62.1685V101.794ZM70.3875 105.861V108.738H69.1405V101.794H71.5206C73.021 101.794 73.9006 102.392 73.9006 103.553C73.9026 103.968 73.7847 104.374 73.5612 104.723C73.3377 105.073 73.0181 105.35 72.6408 105.522L74.4672 108.738H73.065L71.606 105.832C71.4132 105.861 71.2187 105.875 71.0239 105.876C70.8687 105.876 70.6281 105.861 70.3875 105.861ZM72.6252 103.905C72.6252 103.085 72.157 102.632 71.1093 102.632C70.8505 102.632 70.6125 102.632 70.3875 102.632V104.984C70.6935 105.014 71.0009 105.029 71.3085 105.028C71.9888 105.041 72.6278 104.743 72.6278 103.905H72.6252ZM76.692 103.566C76.692 102.49 77.7553 101.654 79.2584 101.654C79.9707 101.641 80.6813 101.728 81.3694 101.913L81.1417 102.919C80.4345 102.657 79.6866 102.522 78.9324 102.521C78.2934 102.521 77.8407 102.819 77.8407 103.372C77.8407 103.926 78.252 104.236 79.3696 104.666C81.1417 105.359 81.5091 105.884 81.5091 106.79C81.5091 108.024 80.363 108.888 78.578 108.888C77.8874 108.879 77.201 108.779 76.5368 108.59L76.7774 107.54C77.532 107.833 78.3349 107.982 79.1445 107.98C79.7525 107.98 80.319 107.669 80.319 107.116C80.319 106.521 80.0086 106.153 78.7203 105.656C77.2845 105.124 76.692 104.642 76.692 103.566ZM85.3171 108.74H84.0702V101.797H85.3171V108.74ZM90.7499 101.797C92.8894 101.797 94.2656 102.974 94.2656 105.056C94.2656 107.385 92.4935 108.74 90.1833 108.74H88.3414V101.797H90.7499ZM89.5883 107.819C89.9013 107.848 90.3825 107.861 90.8068 107.861C91.9141 107.861 92.9903 107.224 92.9903 105.274C92.9903 103.432 91.8002 102.687 90.3541 102.687H89.578L89.5883 107.819ZM100.348 106.841H97.6262L96.9587 108.74H95.7273L98.4049 101.825L99.6984 101.657L102.347 108.74H101.031L100.348 106.841ZM98.974 102.961L97.9392 105.923H100.009L98.974 102.961ZM106.994 101.784C109.133 101.784 110.507 102.961 110.507 105.043C110.507 107.372 108.737 108.727 106.427 108.727H104.585V101.784H106.994ZM105.832 107.806C106.145 107.835 106.626 107.848 107.051 107.848C108.155 107.848 109.232 107.211 109.232 105.261C109.232 103.419 108.042 102.674 106.598 102.674H105.822L105.832 107.806Z" fill="white"/>
<path d="M27.5267 128.73L20.503 118.677V128.461H18.3583V115.324H20.7177L27.3948 125.059V115.327H29.511V128.329L27.5267 128.73ZM41.7553 124.868H36.6072L35.3473 128.461H33.019L38.0843 115.379L40.5239 115.058L45.5375 128.461H43.0437L41.7553 124.868ZM39.1605 117.557L37.2022 123.16H41.1448L39.1605 117.557ZM58.4416 127.799C57.4766 128.334 55.7097 128.738 54.2351 128.738C50.4529 128.738 47.6925 126.459 47.6925 122.035C47.6925 117.932 50.427 115.066 54.662 115.066C56.2995 115.066 57.7198 115.324 58.3355 115.627L57.7716 117.477C56.5483 117.046 55.2627 116.82 53.966 116.807C52.0905 116.807 50.1321 117.932 50.1321 121.686C50.1321 125.654 52.626 126.94 54.931 126.94C56.1366 126.94 57.3706 126.593 57.9604 126.244L58.4416 127.799ZM64.5754 128.469H62.216V115.332H64.5754V128.469ZM74.6881 128.728C71.149 128.728 68.6836 126.34 68.6836 122.159C68.6836 117.681 71.6328 115.055 75.7875 115.055C79.3266 115.055 81.792 117.466 81.792 121.649C81.792 126.094 78.8376 128.73 74.6984 128.73L74.6881 128.728ZM74.8485 116.796C72.7788 116.796 71.1231 118.11 71.1231 121.541C71.1231 125.455 72.9341 127.01 75.5987 127.01C77.6916 127.01 79.3525 125.716 79.3525 122.239C79.355 118.354 77.5027 116.799 74.8485 116.799V116.796ZM95.0272 128.728L88.0034 118.674V128.459H85.8588V115.322H88.2182L94.8771 125.059V115.327H96.9959V128.329L95.0272 128.728ZM109.256 124.865H104.108L102.848 128.459H100.519L105.587 115.376L108.027 115.055L113.038 128.459H110.547L109.256 124.865ZM106.653 117.557L104.708 123.153H108.648L106.653 117.557ZM116.543 115.332H118.903V126.754L124.638 126.673L124.398 128.469H116.543V115.332Z" fill="white"/>
<path d="M34.7877 135.175C36.9272 135.175 38.3035 136.349 38.3035 138.432C38.3035 140.76 36.5314 142.116 34.2212 142.116H32.3792V135.175H34.7877ZM33.6261 141.195C33.9392 141.223 34.4204 141.236 34.8446 141.236C35.9493 141.236 37.0281 140.6 37.0281 138.649C37.0281 136.807 35.8381 136.062 34.3919 136.062H33.6158L33.6261 141.195ZM40.7922 135.175H45.141L45.0271 136.096L42.0391 136.052V138.121H44.8021L44.6727 138.957L42.0391 138.913V141.21L45.3402 141.166L45.2263 142.116H40.7922V135.175Z" fill="white"/>
<path d="M56.4412 141.761C55.7456 142.089 54.9856 142.259 54.2164 142.258C52.2192 142.258 50.7601 141.052 50.7601 138.716C50.7601 136.548 52.2063 135.032 54.444 135.032C55.1037 135.01 55.7617 135.111 56.3843 135.33L56.0868 136.307C55.4401 136.079 54.76 135.959 54.0741 135.953C53.0833 135.953 52.0485 136.548 52.0485 138.54C52.0485 140.638 53.3678 141.319 54.5863 141.319C55.141 141.323 55.6889 141.196 56.1851 140.949L56.4412 141.761ZM61.3255 142.258C59.4577 142.258 58.1538 140.995 58.1538 138.786C58.1538 136.419 59.706 135.032 61.9076 135.032C63.778 135.032 65.0819 136.307 65.0819 138.517C65.0819 140.868 63.5219 142.258 61.3255 142.258ZM61.4109 135.953C60.3218 135.953 59.4422 136.646 59.4422 138.46C59.4422 140.53 60.4071 141.35 61.8093 141.35C62.9139 141.35 63.7909 140.669 63.7909 138.827C63.7909 136.773 62.8156 135.953 61.4109 135.953ZM67.5861 135.177H68.833V141.212L71.865 141.168L71.7357 142.118H67.5964L67.5861 135.177ZM76.6407 142.26C74.7702 142.26 73.469 140.998 73.469 138.788C73.469 136.421 75.0212 135.035 77.2227 135.035C79.0932 135.035 80.397 136.31 80.397 138.519C80.4022 140.868 78.837 142.258 76.6458 142.258L76.6407 142.26ZM76.726 135.956C75.6369 135.956 74.7573 136.649 74.7573 138.462C74.7573 140.532 75.7197 141.352 77.1244 141.352C78.2291 141.352 79.1061 140.672 79.1061 138.83C79.1113 136.773 78.1334 135.953 76.7312 135.953L76.726 135.956ZM84.1171 136.747L83.5997 142.118H82.4589L83.3229 135.177H84.6397L86.7947 140.716L88.8643 135.177H90.1811L91.0167 142.118H89.7982L89.2601 136.734L87.3043 141.908H87.25V141.924L86.1712 142.095L84.1171 136.747ZM93.6115 135.177H95.8648C97.3808 135.177 98.2164 135.772 98.2164 136.82C98.2164 137.596 97.7197 138.113 97.0962 138.45C97.8723 138.576 98.726 139.029 98.726 140.064C98.726 141.311 97.5774 142.118 95.6371 142.118H93.6115V135.177ZM97.0108 137.187C97.0108 136.45 96.615 136.026 95.4379 136.026C95.2982 136.026 95.0706 136.025 94.8584 136.041V138.193C95.1171 138.193 95.3759 138.209 95.5957 138.209C96.6875 138.206 97.016 137.795 97.016 137.184L97.0108 137.187ZM97.4791 140.206C97.4791 139.399 96.8272 138.959 95.7225 138.959C95.4819 138.959 95.1559 138.959 94.8584 138.959V141.212C95.2413 141.212 95.707 141.241 96.1519 141.241C96.8892 141.251 97.4843 140.995 97.4843 140.204L97.4791 140.206ZM102.433 142.118H101.186V135.174H102.433V142.118ZM109.222 140.219H106.518L105.851 142.118H104.619L107.294 135.2L108.588 135.032L111.237 142.115H109.907L109.222 140.219ZM107.848 136.351L106.813 139.314H108.896L107.848 136.351Z" fill="white"/>
<path d="M95.2982 47.9195C95.2982 45.3506 94.0823 43.1672 92.1239 42.2281L91.9454 42.1401L92.036 42.3187C92.0857 42.4353 92.1062 42.5623 92.0955 42.6886C92.0955 43.3224 91.7307 43.9304 91.3194 44.634C90.6907 45.6818 89.9069 46.9908 89.9069 49.032C89.9069 51.9682 91.6221 54.8993 94.0797 56.1643L94.2401 56.2472L94.1729 56.079C94.0473 55.7483 93.9816 55.3979 93.9788 55.0442C93.9788 53.8981 94.2944 52.7754 94.6308 51.5853C94.9671 50.3953 95.2982 49.1587 95.2982 47.9195ZM92.1938 44.3701C91.9109 45.6699 91.7224 46.9884 91.6298 48.3153C91.6041 49.3369 91.6716 50.3587 91.8316 51.368L91.9325 51.8725L91.9661 51.3551C92.0334 50.2918 92.1395 49.226 92.2248 48.3231C92.3344 46.9446 92.5349 45.5748 92.825 44.2227C92.9993 45.1612 93.0859 46.1139 93.0837 47.0684C93.0843 49.0388 92.9503 51.0069 92.6827 52.9591C93.3424 50.7601 93.7512 48.5016 93.7512 47.0684C93.7533 46.0496 93.6667 45.0325 93.4925 44.0287C94.2298 45.0635 94.6178 46.3803 94.6178 47.9092C94.6178 49.0837 94.2789 50.2375 93.953 51.3732C93.627 52.5089 93.2778 53.7015 93.2803 54.9278C91.4694 53.3187 90.551 51.3266 90.551 49.0087C90.564 47.4953 91.1331 46.1759 92.1912 44.3701H92.1938Z" fill="white"/>
<path d="M81.2536 38.2102C81.2681 38.5991 81.3603 38.9812 81.5246 39.3339C81.689 39.6867 81.9223 40.003 82.2108 40.2643L82.3039 40.3445L82.322 40.2229C82.4514 39.3899 83.8018 38.2775 85.5351 38.011H85.5636C86.8571 37.0098 87.4236 35.1859 87.4236 33.82C87.4236 31.9651 86.5208 30.7001 85.6489 29.4738C85.1851 28.8633 84.7773 28.2122 84.4304 27.5284C84.7361 27.6431 85.0614 27.6959 85.3876 27.6836C85.65 27.692 85.9114 27.6472 86.1559 27.5516C86.4005 27.4561 86.6231 27.3119 86.8103 27.1279C86.9975 26.9438 87.1454 26.7237 87.245 26.4808C87.3447 26.2379 87.394 25.9774 87.39 25.7149C87.39 24.2274 86.1844 23.146 84.521 23.146C82.4281 23.146 80.3171 24.9569 80.3171 29.0185C80.3171 30.0275 80.4982 33.5018 82.798 36.1845C82.3534 36.3048 81.9609 36.5686 81.6816 36.9349C81.4023 37.3012 81.2519 37.7496 81.2536 38.2102ZM85.0539 26.698C85.1806 26.5788 85.2686 26.4242 85.3062 26.2543C85.3439 26.0844 85.3295 25.9072 85.265 25.7456C85.2006 25.584 85.089 25.4455 84.9447 25.3482C84.8005 25.2509 84.6303 25.1993 84.4563 25.2001C83.9053 25.2001 83.5224 25.6399 83.5224 26.2685C83.5224 27.412 84.2416 28.4571 85.0048 29.5644C85.8844 30.8398 86.7924 32.1514 86.7924 33.8071C86.7902 34.7527 86.529 35.6797 86.037 36.4872C86.156 33.5924 85.3074 32.1643 84.4848 30.7803C84.0295 30.0042 83.4267 29.2513 83.124 28.214C83.3129 29.2614 83.6619 30.2736 84.1588 31.2149C84.7849 32.5291 85.4316 33.8873 85.2997 36.4536C82.0633 30.9717 82.0219 28.0329 82.3531 26.0797L82.441 25.5623L82.2237 26.0434C81.1889 28.3355 82.0349 32.0091 84.728 36.9555C83.6931 36.8028 82.8498 37.1676 82.4928 37.9515L82.3763 38.2102L82.5963 38.0394C82.8606 37.8314 83.1723 37.6919 83.5035 37.6332C83.8348 37.5746 84.1754 37.5986 84.4951 37.7031C83.2197 38.0239 82.6169 38.562 82.1487 39.2709C81.9442 38.9587 81.8412 38.5909 81.8538 38.2179C81.8538 37.3513 82.4747 36.7356 83.6026 36.4846L83.7113 36.4588L83.6388 36.3734C81.8889 34.3198 80.9253 31.7114 80.9199 29.0133C80.9199 25.3915 82.7877 23.7436 84.521 23.7436C85.8585 23.7436 86.7225 24.5197 86.7225 25.7097C86.7309 25.8919 86.7027 26.0739 86.6398 26.2451C86.5769 26.4163 86.4805 26.5733 86.3562 26.7067C86.2319 26.8402 86.0822 26.9476 85.9159 27.0224C85.7496 27.0973 85.57 27.1383 85.3876 27.1429C85.0456 27.1643 84.7038 27.0984 84.3942 26.9515C84.6352 26.9493 84.867 26.8591 85.0462 26.698H85.0539Z" fill="white"/>
<path d="M89.6636 40.4816H89.7025C90.6959 40.4816 91.6375 41.1491 92.6335 41.8579C93.7563 42.6573 94.9205 43.4826 96.3071 43.4826C97.7533 43.4826 98.8424 42.5073 98.8424 41.2138C98.8542 40.9324 98.8097 40.6515 98.7115 40.3876C98.6133 40.1237 98.4635 39.882 98.2708 39.6768C98.078 39.4715 97.8462 39.3068 97.589 39.1922C97.3318 39.0776 97.0543 39.0156 96.7728 39.0096C96.0976 39.0096 95.6215 39.3537 95.5207 39.8995C95.2227 39.5735 94.8631 39.3097 94.4626 39.1234C95.1769 38.7077 95.7521 38.0899 96.1158 37.3477C96.4795 36.6056 96.6154 35.7724 96.5063 34.9532V34.9195L96.4753 34.904C96.0162 34.7436 95.5304 34.6733 95.0447 34.697C94.1849 34.7152 93.3493 34.985 92.6413 35.4731C92.6228 34.6814 92.4386 33.9024 92.1006 33.1862C91.8378 32.6525 91.693 32.0684 91.6763 31.4736C91.6823 31.0954 91.738 30.7197 91.8419 30.356L91.8652 30.2681H91.7721C89.868 30.3043 87.8915 32.3118 87.8915 35.6077C87.8915 37.328 88.5952 39.2761 89.643 40.4557L89.6636 40.4816ZM90.8821 31.0364L90.9468 31.0157C91.0037 30.995 91.0736 30.9717 91.1331 30.9562C91.0841 31.1806 91.0598 31.4096 91.0606 31.6392C91.088 32.1855 91.2234 32.721 91.459 33.2147C91.8028 33.9671 91.9852 34.7831 91.9945 35.6103C92.0145 36.0757 91.9594 36.5412 91.8316 36.9891L91.6945 37.4031L91.9532 37.0513C92.8095 35.8742 93.8676 35.2765 95.1016 35.2765C95.3714 35.2745 95.6405 35.304 95.9035 35.3645C95.9604 36.6218 95.2671 38.262 93.1406 39.1493L92.9181 39.2424L93.1561 39.2787C93.9728 39.3763 94.726 39.7681 95.2749 40.3807C95.5802 40.6834 95.8466 40.9473 96.3097 40.9473C96.4158 40.9505 96.5214 40.932 96.62 40.8928C96.7186 40.8536 96.8082 40.7946 96.8831 40.7194C96.958 40.6443 97.0167 40.5546 97.0556 40.4558C97.0945 40.3571 97.1127 40.2514 97.1091 40.1453C97.1112 40.0518 97.0925 39.959 97.0545 39.8736C97.0165 39.7882 96.96 39.7122 96.8892 39.6512C96.8581 39.6233 96.8232 39.5998 96.7857 39.5813C97.6575 39.5813 98.1749 40.4144 98.1749 41.2138C98.1749 42.1787 97.3988 42.8798 96.3097 42.8798C95.1766 42.8798 94.0667 42.1218 92.9957 41.3871C92.4759 41.0139 91.9333 40.6734 91.3711 40.3678C92.129 40.3375 92.88 40.5232 93.5364 40.9033L93.6865 40.999C95.1171 41.9122 96.3537 42.6987 97.2617 41.5889L97.6239 41.1465L97.1686 41.4931C96.3925 42.0804 95.6164 41.5733 94.4703 40.8076C94.2504 40.6601 94.0228 40.5101 93.777 40.3548C93.0423 39.8969 91.9842 39.8375 91.4073 39.8142C92.4711 39.2459 93.4328 38.5045 94.253 37.6204L94.5117 37.3048L94.1625 37.5195C93.9038 37.6773 93.6451 37.8403 93.3864 38.0058C92.6568 38.4637 91.904 38.9372 91.1175 39.3563C91.9247 38.2516 93.3372 37.0124 94.8739 36.0682L95.2904 35.8095L94.8196 35.9414C93.3579 36.3553 91.7358 37.7523 90.6364 39.0174C90.8614 38.0731 91.221 36.2208 91.071 34.5651L91.0193 34.0037L90.9365 34.5625C90.7199 36.0064 90.4141 37.4354 90.0207 38.8414C89.664 36.6576 89.7823 34.4226 90.3673 32.2885L90.4811 31.8694L90.2457 32.2342C89.317 33.67 89.0454 35.8095 89.3998 38.9604C88.8597 37.9271 88.5641 36.7836 88.5357 35.618C88.5279 33.3156 89.3868 31.6496 90.8821 31.0364Z" fill="white"/>
<path d="M68.9126 40.6807C69.1713 40.6807 69.3963 40.4504 69.6085 39.9718L69.7016 39.7597L69.5076 39.889C69.4507 39.9278 69.4144 39.9485 69.3834 39.9666C69.4427 39.8851 69.4946 39.7986 69.5386 39.7079L69.6317 39.5269L69.4481 39.6174C68.8841 39.8994 68.6435 40.1348 68.6435 40.4453C68.6435 40.5591 68.7134 40.6807 68.9126 40.6807Z" fill="white"/>
<path d="M98.038 55.3856C97.8276 55.1755 97.5761 55.011 97.2992 54.9024C97.0224 54.7938 96.7261 54.7434 96.4289 54.7543C95.5985 54.7905 95.063 55.2717 95.063 55.9909C95.0574 56.1185 95.0774 56.2458 95.1217 56.3656C95.166 56.4853 95.2337 56.595 95.3209 56.6882C95.4081 56.7815 95.5131 56.8564 95.6296 56.9085C95.7461 56.9607 95.8719 56.9891 95.9995 56.9921C96.0866 56.993 96.1734 56.9834 96.2582 56.9636C95.9503 57.3129 95.3631 57.3569 95.0966 57.3569C93.4383 57.3569 91.837 56.2212 91.0221 54.462L90.9367 54.2783L90.8927 54.4749C90.7511 55.1555 90.6835 55.8494 90.6909 56.5446C90.6909 58.177 91.1643 59.5429 92.0595 60.4949C92.4583 60.9168 92.9398 61.2518 93.474 61.4793C94.0081 61.7067 94.5834 61.8217 95.1639 61.8169C97.4068 61.8169 99.0444 60.1897 99.0444 57.9364C99.0543 57.4657 98.9705 56.9977 98.7977 56.5598C98.6249 56.1218 98.3667 55.7227 98.038 55.3856ZM95.1354 59.962C96.2685 59.962 97.205 59.2273 97.5698 58.045L97.7561 57.45L97.4456 57.9907C96.9282 58.891 96.2194 59.2842 95.1354 59.2842C93.7772 59.2842 92.3777 58.1666 91.7878 56.648C92.6105 57.3828 93.5987 58.0191 95.1044 58.0191C96.3203 58.0191 97.174 57.3181 97.174 56.3169C97.1932 56.0783 97.1198 55.8414 96.9691 55.6555C96.8183 55.4695 96.6017 55.3488 96.3643 55.3183H96.4289C97.5129 55.3183 98.364 56.4773 98.364 57.9545C98.3743 58.3778 98.2985 58.7987 98.1414 59.1919C97.9843 59.5851 97.749 59.9423 97.4499 60.2419C97.1507 60.5416 96.7939 60.7774 96.401 60.9352C96.008 61.0929 95.5872 61.1694 95.1639 61.1598C93.1563 61.1598 91.7542 59.7757 91.3558 57.4345C92.2147 59.0462 93.5832 59.962 95.1354 59.962Z" fill="white"/>
<path d="M67.7131 61.3823C68.3987 60.8882 68.2435 60.3863 68.0003 59.9646L67.0819 57.9907H66.8439L67.5372 59.9983C67.5146 60.0866 67.4852 60.1731 67.4493 60.257C67.3493 60.4457 67.313 60.6616 67.3458 60.8727C67.0974 60.8117 66.8354 60.8401 66.6059 60.9528C66.4578 61.0147 66.3004 61.0514 66.1402 61.0615H65.9902L66.0885 61.1754C66.3886 61.5168 66.668 61.6928 66.9681 61.6928C67.2432 61.6714 67.5042 61.5626 67.7131 61.3823Z" fill="white"/>
<path d="M66.3262 60.5909C66.4294 60.6631 66.5522 60.7019 66.678 60.7021C66.7555 60.7021 66.8321 60.6863 66.9031 60.6555C67.0816 60.565 67.2731 60.4486 67.2731 60.1925C67.2731 59.6751 66.7789 59.2818 66.3392 59.0826V56.7905H66.1089V56.8552C66.0442 58.0556 66.0003 58.723 65.977 59.124C65.9537 59.525 65.9433 59.6569 65.9433 59.7941C65.9368 59.9481 65.9684 60.1014 66.0352 60.2403C66.1019 60.3793 66.2019 60.4997 66.3262 60.5909Z" fill="white"/>
<path d="M70.38 59.3282C71.107 59.3282 71.79 58.8703 71.9452 58.2934L73.2077 56.3945H72.9153L71.5727 58.1408L71.3424 58.2365C70.9595 58.3917 70.5663 58.5521 70.3852 58.7875C70.2222 58.5547 69.8264 58.3969 69.4435 58.2443C69.3556 58.2106 69.2702 58.177 69.1848 58.1408L67.8396 56.3945H67.5447L68.8097 58.2262C68.9101 58.5593 69.1195 58.849 69.4042 59.0488C69.689 59.2487 70.0327 59.3471 70.38 59.3282Z" fill="white"/>
<path d="M68.6616 62.0391C68.7905 61.9163 68.8937 61.7692 68.9652 61.6062C69.0367 61.4432 69.0751 61.2676 69.0781 61.0896C69.0623 60.9429 69.0167 60.8009 68.9442 60.6724C68.8717 60.5438 68.7738 60.4314 68.6564 60.342L68.5426 60.2437V60.3937C68.5158 60.5652 68.4532 60.7292 68.3589 60.8749C68.2145 61.077 68.1449 61.323 68.1623 61.5708C67.9199 61.5728 67.6844 61.6516 67.4897 61.7959C67.3473 61.8973 67.1836 61.9645 67.0111 61.9925H66.8765L66.9567 62.1011C67.0365 62.2301 67.1446 62.3393 67.2728 62.4204C67.4009 62.5016 67.5459 62.5525 67.6966 62.5694H67.7328C67.9159 62.5501 68.093 62.493 68.2529 62.4017C68.4127 62.3104 68.5519 62.1869 68.6616 62.0391Z" fill="white"/>
<path d="M70.3795 58.2597C70.6969 58.2616 71.0079 58.1705 71.2741 57.9976C71.5403 57.8247 71.75 57.5777 71.8774 57.2869L72.7958 55.5898H72.5112L71.6342 57.0049L71.3755 57.1032C70.99 57.2559 70.5606 57.424 70.3743 57.7009C70.2036 57.4292 69.769 57.2611 69.3809 57.1084C69.2878 57.0722 69.1972 57.0386 69.1222 57.0024L68.1779 55.5898H67.8934L68.8816 57.2844C69.0291 57.8509 69.6577 58.2597 70.3795 58.2597Z" fill="white"/>
<path d="M83.752 63.0945C83.4508 63.108 83.1526 63.1602 82.8647 63.2497C82.5249 63.3554 82.1725 63.4154 81.8169 63.4282C80.3397 63.4282 79.3489 62.841 78.6064 61.5268L78.5858 61.4932H77.7786L77.1991 62.2925L77.2224 62.3288C77.3888 62.5998 77.4782 62.911 77.4811 63.229C77.4506 63.5888 77.3532 63.9398 77.1939 64.2638C76.8065 65.1331 76.6089 66.0751 76.6144 67.0268C76.6144 68.4497 77.106 69.3965 77.5018 70.1571C77.776 70.69 78.0192 71.1479 78.0192 71.6291C78.0103 71.7271 77.9782 71.8217 77.9256 71.9049C77.873 71.9881 77.8013 72.0576 77.7165 72.1077L77.6699 72.1362L77.9752 72.9123H79.3256L84.554 64.7347C84.6739 64.5201 84.7446 64.2815 84.761 64.0362C84.7573 63.9079 84.7282 63.7816 84.6754 63.6646C84.6225 63.5476 84.547 63.4422 84.4532 63.3546C84.3593 63.267 84.249 63.1989 84.1287 63.1543C84.0083 63.1096 83.8803 63.0893 83.752 63.0945ZM82.4145 64.2458V66.1757L81.9851 66.8121V64.2949C82.131 64.2892 82.2762 64.2728 82.4197 64.2458H82.4145ZM82.8854 64.1474C82.9848 64.1177 83.0824 64.0823 83.1777 64.0414C83.2525 64.0031 83.3328 63.9769 83.4157 63.9637C83.4607 63.9642 83.5047 63.9773 83.5427 64.0015C83.5807 64.0258 83.6111 64.0602 83.6304 64.1009C83.6559 64.1449 83.6692 64.1949 83.6692 64.2458C83.6692 64.2966 83.6559 64.3466 83.6304 64.3906L82.8879 65.4771L82.8854 64.1474ZM81.5142 64.3311V67.5442L81.0848 68.178V64.2975C81.2289 64.3174 81.374 64.3286 81.5194 64.3311H81.5142ZM80.614 64.2147V68.8454L80.1483 69.544V64.0569L80.244 64.0931C80.3553 64.1319 80.4665 64.1733 80.6191 64.2147H80.614ZM77.6156 66.8974C77.6092 66.0602 77.7601 65.2291 78.0606 64.4475C78.2612 63.9391 78.3799 63.4021 78.4124 62.8565L78.7461 63.1902V70.6098C78.6445 70.3523 78.5296 70.1001 78.4021 69.8544C77.8896 68.9532 77.6203 67.9342 77.6208 66.8974H77.6156ZM79.6852 63.837V70.2476L79.2196 70.9435V63.5628C79.3686 63.6643 79.5242 63.7559 79.6852 63.837Z" fill="white"/>
<path d="M70.3798 56.2831C70.5311 56.2672 70.6716 56.1976 70.776 56.0871C70.8804 55.9765 70.9418 55.8322 70.949 55.6803C70.9361 55.4414 70.8641 55.2094 70.7394 55.0051C70.6929 54.9068 70.6385 54.7955 70.5816 54.6636L70.5118 53.3442H70.2531L70.1858 54.6636C70.1289 54.7955 70.0746 54.9068 70.0254 55.0051C69.9004 55.2092 69.8283 55.4413 69.8159 55.6803C69.8229 55.8314 69.8835 55.9751 69.9869 56.0855C70.0902 56.196 70.2295 56.266 70.3798 56.2831Z" fill="white"/>
<path d="M70.3802 57.1914C71.0916 57.1914 71.4357 56.7025 71.6737 56.2135L72.2377 54.5889H71.9997L71.3581 55.9393L71.1718 56.0273C70.8743 56.1644 70.5225 56.3248 70.375 56.5912C70.2198 56.3066 69.824 56.1463 69.467 55.9988L69.3247 55.9393L68.7478 54.5889H68.5072L69.0712 56.2083C69.1451 56.4966 69.3151 56.751 69.553 56.9298C69.791 57.1085 70.0828 57.2008 70.3802 57.1914Z" fill="white"/>
<path d="M72.2546 62.5104C72.058 62.3449 71.8407 62.1612 71.5923 62.2207C71.6522 61.9691 71.6249 61.7045 71.5147 61.4705C71.441 61.3028 71.4065 61.1206 71.4138 60.9376L71.4319 60.8004L71.3129 60.8677C71.1746 60.9567 71.0581 61.0757 70.9721 61.2159C70.8861 61.3561 70.8328 61.5138 70.8162 61.6774C70.7956 61.8006 70.8001 61.9266 70.8294 62.048C70.8587 62.1694 70.9123 62.2836 70.9869 62.3837L70.6222 62.6579V60.6426C71.287 60.5547 72.0088 60.089 72.1511 59.3491L73.6153 57.189H73.323L71.7708 59.1344L71.4759 59.2353C71.0387 59.3828 70.5523 59.5431 70.3764 59.8251C70.2005 59.5431 69.7167 59.3828 69.2769 59.2353L68.9846 59.1344L67.4324 57.189H67.1375L68.6043 59.3491C68.7466 60.0968 69.4684 60.5624 70.1332 60.6426V62.6502L69.7685 62.3759C69.8431 62.2758 69.8966 62.1616 69.926 62.0403C69.9553 61.9189 69.9598 61.7928 69.9392 61.6697C69.9215 61.5051 69.867 61.3466 69.7796 61.2059C69.6923 61.0653 69.5744 60.9462 69.4347 60.8573L69.3157 60.7901L69.3338 60.9272C69.3409 61.111 69.3064 61.2941 69.2329 61.4627C69.1224 61.6967 69.095 61.9613 69.1553 62.2129C68.8966 62.1457 68.6379 62.3552 68.4284 62.5286C68.3159 62.6353 68.1865 62.7227 68.0455 62.7873L67.9239 62.8286L68.0274 62.9063C68.5448 63.284 69.0286 63.2322 69.5408 62.7407L69.9547 63.0512L68.5888 64.086L69.1476 64.2722L70.1332 63.5323V64.6421L70.3686 64.7379L70.6041 64.6421V63.5272L71.6596 64.2722L72.2184 64.086L70.7826 63.0512L71.1965 62.7407C71.7139 63.2374 72.1977 63.2917 72.7125 62.9063L72.8211 62.8235L72.6892 62.7873C72.5278 62.7239 72.3803 62.6299 72.2546 62.5104Z" fill="white"/>
<path d="M90.5949 84.3757C90.1445 84.3787 89.6986 84.4664 89.2807 84.6344C88.9788 84.2738 88.6039 83.9813 88.1808 83.7762C87.7576 83.5711 87.2957 83.458 86.8256 83.4444C85.6718 83.4444 84.9552 84.0342 84.9552 84.9811C84.9469 85.3415 85.066 85.6933 85.2915 85.9745C84.8129 85.765 84.3835 85.571 83.9075 85.3536C83.5427 85.1907 83.1598 85.0147 82.7148 84.8181C80.9427 84.0239 74.8943 81.455 70.5869 81.38C72.7988 80.2262 74.9848 79.4863 77.1114 78.7671C79.1318 78.0841 81.0411 77.4374 82.7562 76.5009C84.9388 75.2778 86.694 73.4152 87.7854 71.1639C89.1462 68.4216 89.855 64.7687 89.9947 59.9983V59.9284H89.9249C88.3338 59.9284 87.5965 59.411 87.5965 58.3271C87.5965 57.3828 87.9743 56.7955 89.8628 56.7955H89.93V56.7257C89.9089 55.4613 89.7625 54.2022 89.4928 52.9667C89.229 51.769 89.0852 50.5479 89.0634 49.3217C89.0634 48.0954 89.348 45.6533 91.252 43.0921L91.2779 43.0559L90.5018 41.5684L90.4474 41.5865C90.0904 41.7145 89.7045 41.7399 89.3337 41.6599C88.9629 41.5799 88.6219 41.3976 88.3494 41.1337C88.1073 40.8682 87.941 40.5425 87.8678 40.1908C87.7945 39.839 87.817 39.4741 87.9329 39.134V39.0822L86.3806 38.2311L86.3444 38.2647C83.8635 40.6086 81.1342 41.8478 78.4514 41.8478C76.5019 41.8458 74.5856 41.3424 72.8868 40.3861L72.835 40.3576L70.3851 43.7337L67.9352 40.3576L67.8835 40.3861C66.1828 41.3424 64.2647 41.8449 62.3136 41.8452C59.5947 41.8452 56.9378 40.6396 54.4206 38.2621L54.3844 38.2285L52.8322 39.0797L52.8451 39.1314C52.9607 39.4715 52.9831 39.8364 52.9098 40.1881C52.8366 40.5398 52.6704 40.8654 52.4286 41.1311C52.1561 41.395 51.8151 41.5773 51.4443 41.6574C51.0735 41.7374 50.6877 41.7119 50.3306 41.5839L50.2762 41.5658L49.5001 43.0533L49.526 43.0895C51.43 45.6507 51.7146 48.0928 51.7146 49.3191C51.6928 50.5453 51.549 51.7664 51.2852 52.9642C51.0155 54.1996 50.8691 55.4588 50.848 56.7231V56.793H50.8971C52.7856 56.793 53.1633 57.3802 53.1633 58.3245C53.1633 59.4162 52.4235 59.9258 50.835 59.9258H50.7652V59.9957C50.8919 64.7661 51.6137 68.419 52.9745 71.1613C54.0668 73.4128 55.8229 75.2754 58.0062 76.4983C59.7188 77.4348 61.6281 78.0815 63.6485 78.7645C65.7699 79.4837 67.9611 80.2236 70.173 81.3774C65.8656 81.4576 59.8249 84.0213 58.045 84.8155C57.6078 85.0096 57.2275 85.1829 56.8705 85.3329C56.3868 85.5502 55.9521 85.7469 55.4684 85.959C55.6939 85.6778 55.813 85.326 55.8047 84.9656C55.8047 84.0187 55.0881 83.4289 53.9343 83.4289C53.4642 83.4425 53.0023 83.5555 52.5791 83.7607C52.1559 83.9658 51.7811 84.2583 51.4792 84.6189C51.0608 84.4524 50.6153 84.3647 50.165 84.3602C48.8482 84.3602 48.0307 85.0639 48.0307 86.197V89.3661C48.0307 91.146 49.3423 92.1678 51.6344 92.1678C53.704 92.1678 55.815 91.2779 59.1005 89.8266C63.1337 88.0416 66.3209 86.6316 70.3799 86.6316C74.439 86.6316 77.6236 88.0416 81.6619 89.8266C84.9423 91.2779 87.061 92.1678 89.1255 92.1678C91.4176 92.1678 92.7292 91.133 92.7292 89.3661V86.197C92.7292 85.0794 91.9117 84.3757 90.5949 84.3757ZM51.9319 53.047C52.1687 51.7716 52.3131 50.4807 52.364 49.1845C52.364 47.2158 51.5697 44.8978 50.24 42.9757L50.5996 42.2565C51.0019 42.3309 51.4162 42.3064 51.8069 42.1852C52.1976 42.064 52.553 41.8496 52.8425 41.5606C53.1091 41.2769 53.3095 40.9377 53.4294 40.5673C53.5493 40.197 53.5856 39.8046 53.5359 39.4185L54.2861 39.0279C56.8317 41.3407 59.5274 42.5152 62.3059 42.5152C64.1929 42.5149 66.0555 42.0877 67.7541 41.2657L69.9764 44.4037V52.6227C69.1071 53.2617 67.7334 53.6575 66.3752 53.6575C66.0878 53.6537 65.8009 53.6312 65.5164 53.5902H65.4801L64.629 54.625L64.6445 54.6638C64.8784 55.2842 64.99 55.9439 64.9731 56.6067C64.9657 57.0756 64.9242 57.5434 64.8489 58.0063H53.8644C53.7713 56.9534 52.959 56.2937 51.5671 56.1462C51.6217 55.1063 51.7435 54.0711 51.9319 53.047ZM87.2189 39.4289C87.1693 39.815 87.2057 40.2072 87.3256 40.5776C87.4455 40.9479 87.6458 41.2871 87.9122 41.571C88.2021 41.8602 88.5579 42.0746 88.9491 42.1959C89.3403 42.3171 89.755 42.3414 90.1577 42.2668L90.5147 42.986C89.185 44.9108 88.3908 47.2288 88.3908 49.1949C88.4416 50.4911 88.586 51.7819 88.8228 53.0573C89.0123 54.0762 89.1358 55.1062 89.1927 56.141C87.8009 56.2885 86.9886 56.9482 86.8955 58.0011H75.9084C75.8331 57.5382 75.7916 57.0704 75.7842 56.6015C75.7673 55.9388 75.8789 55.279 76.1128 54.6587L76.1283 54.6199L75.2798 53.5851H75.2409C74.9564 53.6261 74.6695 53.6486 74.3821 53.6523C73.0265 53.6523 71.6502 53.2565 70.7809 52.6175V44.4011L73.0032 41.2631C74.702 42.0845 76.5644 42.5116 78.4514 42.5126C81.2273 42.5126 83.923 41.3381 86.4712 39.0253L87.2189 39.4289ZM76.1878 78.3816C74.3484 78.9921 72.447 79.6208 70.7809 80.4512V65.7311C75.2384 64.2125 76.0843 62.4534 76.0843 59.7448C76.0801 59.4357 76.0559 59.1271 76.0119 58.8212C76.0119 58.772 75.999 58.7229 75.9938 58.6789H86.8955C86.9705 59.455 87.4517 60.376 89.2574 60.5415C89.0737 68.3828 86.8153 73.4171 82.3552 75.9291C80.5159 76.9406 78.3195 77.6676 76.1878 78.3713V78.3816ZM74.99 54.2732L75.3781 54.7518L75.3548 54.8553C75.2052 55.4256 75.1253 56.012 75.1168 56.6015C75.1316 57.1445 75.1782 57.6861 75.2565 58.2236C75.3249 58.6804 75.3672 59.1408 75.3832 59.6025C75.3832 62.1895 74.633 63.6693 70.3799 65.0688C66.1269 63.6693 65.3767 62.1895 65.3767 59.6025C65.3927 59.1408 65.435 58.6804 65.5034 58.2236C65.5825 57.6861 65.63 57.1445 65.6457 56.6015C65.6361 56.0129 65.5562 55.4275 65.4077 54.8579L65.3844 54.7518L65.7699 54.2732H65.8061C65.9721 54.3079 66.141 54.3269 66.3106 54.3301C67.93 54.3301 69.2624 53.9628 70.3799 53.2099C71.5001 53.9628 72.8298 54.3301 74.4493 54.3301C74.6231 54.3266 74.7963 54.3075 74.9667 54.2732H74.99ZM53.8644 58.6711H64.7661C64.7661 58.716 64.7609 58.7626 64.7506 58.8108C64.7056 59.1176 64.6805 59.427 64.6756 59.737C64.6756 62.4456 65.5215 64.2048 69.979 65.7234V80.4435C68.3103 79.6208 66.4115 78.9922 64.5721 78.3739C62.4456 77.6702 60.244 76.9407 58.4046 75.9162C53.9446 73.4016 51.6784 68.3673 51.5025 60.526C53.3082 60.3579 53.7894 59.4369 53.8644 58.6608V58.6711ZM51.2334 87.0456C50.0537 87.0456 48.8327 86.5825 48.8327 85.8116C48.8327 85.408 49.2751 84.9785 50.0977 84.9785C50.729 84.9785 51.3912 85.2812 52.201 85.7365C52.8141 86.0806 53.5773 86.4454 54.3327 86.4479C53.3375 86.8091 52.2915 87.0108 51.2334 87.0456ZM52.069 84.9242C52.3047 84.6595 52.5914 84.4452 52.9119 84.294C53.2324 84.1429 53.5802 84.058 53.9343 84.0446C54.6405 84.0446 55.1346 84.4275 55.1346 84.9785C55.1346 85.5295 54.8423 85.8116 54.3585 85.8116C53.6445 85.8116 52.7442 85.3097 52.069 84.9242ZM70.3799 82.0422C73.7431 82.0422 78.987 83.8739 82.4613 85.439C85.307 86.7325 87.4982 87.6483 89.5265 87.6483C90.9726 87.6483 91.6349 87.2887 92.0617 86.9033V89.3816C92.0617 90.7372 90.9907 91.5133 89.1255 91.5133C87.2602 91.5133 85.0509 90.6053 81.9155 89.2186C77.5175 87.2603 74.3407 85.9771 70.3799 85.9771C66.4192 85.9771 63.2424 87.2706 58.8444 89.2186C55.6132 90.6467 53.5152 91.5133 51.6344 91.5133C49.7537 91.5133 48.6981 90.7372 48.6981 89.3816V86.9033C49.125 87.2887 49.7899 87.6483 51.2334 87.6483C53.2616 87.6483 55.4425 86.7325 58.2986 85.439C61.7626 83.8739 67.022 82.0422 70.3799 82.0422ZM86.4195 86.4402C87.1749 86.4402 87.938 86.0728 88.5512 85.7287C89.3583 85.2734 90.0232 84.9708 90.6544 84.9708C91.4745 84.9708 91.9195 85.4002 91.9195 85.8038C91.9195 86.5799 90.6984 87.0378 89.5187 87.0378C88.4636 87.005 87.4203 86.8059 86.4272 86.4479L86.4195 86.4402ZM85.6175 84.9708C85.6175 84.4197 86.1116 84.0369 86.8179 84.0369C87.172 84.0503 87.5197 84.1351 87.8402 84.2863C88.1608 84.4374 88.4475 84.6517 88.6831 84.9164C88.0079 85.3019 87.1102 85.8038 86.3832 85.8038C85.9176 85.8115 85.6252 85.4907 85.6252 84.9785L85.6175 84.9708Z" fill="white"/>
<path d="M87.392 81.5096C87.392 82.027 87.8163 82.3762 88.4269 82.3762C88.6105 82.3759 88.7922 82.3379 88.9605 82.2645C89.1289 82.1911 89.2803 82.0839 89.4055 81.9495C89.5307 81.8151 89.6269 81.6564 89.6882 81.4833C89.7495 81.3101 89.7745 81.1262 89.7617 80.943C89.7617 78.9691 87.5912 77.3057 85.0223 77.3057C83.3356 77.3057 81.7601 77.9395 79.7629 78.7414C78.5186 79.2407 77.1112 79.8073 75.4323 80.3092L75.3107 80.3454L75.4064 80.4282C77.3467 82.0321 79.3361 82.8444 81.3203 82.8444C83.2114 82.8444 84.7041 82.0865 85.9045 81.4785C86.6651 81.0931 87.2937 80.7749 87.7956 80.7723C87.6669 80.846 87.5611 80.9539 87.4899 81.084C87.4187 81.2141 87.3848 81.3614 87.392 81.5096ZM85.1983 80.0789C83.9048 80.6248 81.8817 80.8731 80.5416 80.8731C80.2415 80.8731 79.3309 80.8576 78.6246 80.8318C79.9387 80.6541 81.2364 80.3712 82.5052 79.9858C84.1738 79.5227 85.6096 79.1192 87.211 79.3753L87.7491 79.4606L87.2498 79.2459C86.5996 79.012 85.9125 78.8972 85.2215 78.907C84.1246 78.907 82.8932 79.2123 81.5687 79.5357C80.3292 79.8815 79.0605 80.1127 77.7787 80.2264C78.4177 80.0065 79.111 79.709 79.8483 79.4218C81.6592 78.6768 83.5322 77.9084 85.0223 77.9084C86.6651 77.9084 89.0917 78.8837 89.0917 80.974V81.0077C88.9106 80.454 88.4217 80.1747 87.6249 80.1747C86.991 80.1747 86.2615 80.5368 85.413 80.9508C84.2385 81.538 82.9087 82.2003 81.3203 82.2003C80.2148 82.1866 79.1245 81.9407 78.1202 81.4785C80.2726 81.551 82.6449 81.4837 85.1983 80.0789Z" fill="white"/>
<path d="M73.2828 61.8528C73.0905 61.6933 72.847 61.6088 72.5973 61.6148C72.6161 61.3696 72.5493 61.1255 72.4084 60.924C72.3075 60.7676 72.2422 60.591 72.217 60.4066V60.2437L72.1006 60.3575C71.5418 60.9163 71.5418 61.4932 72.1006 62.1192C72.2076 62.2639 72.3436 62.3847 72.5 62.4738C72.6563 62.5628 72.8296 62.6183 73.0086 62.6366C73.1623 62.6236 73.3113 62.5773 73.4454 62.5009C73.5794 62.4245 73.6952 62.3199 73.7847 62.1943L73.8804 62.083H73.733C73.5667 62.0434 73.4123 61.9645 73.2828 61.8528Z" fill="white"/>
<path d="M89.6657 68.4445L89.5907 68.3901L89.5622 68.4781C89.3579 69.1094 89.1923 69.7716 89.0448 70.4132C88.4783 72.7156 87.9402 74.8913 85.5834 75.5044L85.5058 75.5252L85.5368 75.5976C85.9818 76.6324 87.2494 77.1058 88.2351 77.1058C89.3372 77.1058 90.4108 76.5548 90.8764 75.7709C91.0009 76.2633 91.1661 76.7444 91.3706 77.2093C91.5775 77.6271 91.7131 78.0765 91.7715 78.539C91.784 78.6598 91.769 78.7819 91.7276 78.896C91.6462 78.7321 91.5185 78.5956 91.3603 78.5036C91.2021 78.4116 91.0204 78.3682 90.8376 78.3786C90.5743 78.3871 90.3242 78.4956 90.1381 78.6821C89.9521 78.8686 89.8442 79.1191 89.8365 79.3824C89.8365 80.2076 90.522 80.7845 91.5051 80.7845C93.1996 80.7845 94.907 79.3591 94.907 76.1797C94.8967 73.3184 93.3238 71.0186 89.6657 68.4445ZM90.8945 72.4362V72.6018C90.9101 74.0557 90.597 75.1164 89.9606 75.7605C89.7336 75.987 89.4622 76.1641 89.1635 76.2807C88.8648 76.3973 88.5452 76.451 88.2247 76.4384C87.6306 76.4252 87.0561 76.2231 86.5846 75.8614C88.1161 75.225 89.0836 73.6004 89.689 70.6331C90.0201 72.4854 89.2233 74.793 88.2403 75.6545L87.9816 75.8744L88.3024 75.7683C89.777 75.2768 90.5531 72.7337 90.4625 70.5606C91.9242 72.6303 92.7727 75.476 93.0832 77.4835L93.1711 78.0501L93.2177 77.4783C93.3988 75.2613 92.7003 72.8372 91.2102 70.4494C93.0728 71.9163 94.2163 74.0712 94.2163 76.1719C94.2163 77.9207 93.5644 79.3203 92.4726 79.9127C92.0677 80.1507 91.5853 80.2195 91.13 80.1042C91.3756 80.0975 91.6132 80.0153 91.8104 79.8687C92.0008 79.7133 92.152 79.5152 92.2518 79.2905C92.3515 79.0658 92.3971 78.8208 92.3847 78.5752C92.3847 78.0578 92.1881 77.5663 91.9423 76.9558C91.5698 76.0296 90.9566 75.0077 90.9075 72.8527L90.8739 72.4388L90.8945 72.4362Z" fill="white"/>
<path d="M57.5388 66.4992C57.5388 65.4644 57.9242 65.0505 58.9047 65.0324C58.9047 65.1824 58.9047 65.3299 58.9047 65.4774C58.9341 66.3944 58.8892 67.3124 58.7702 68.2222C58.6098 69.2777 58.1804 69.6011 57.5284 70.0874L57.4353 70.1573L58.2968 71.0964L58.3485 71.0524C59.3005 70.2349 59.7377 69.4847 59.9007 68.3748C60.019 67.419 60.064 66.4556 60.0353 65.4929C60.0353 65.3428 60.0353 65.1876 60.0353 65.0324H61.9652C61.8358 67.2728 61.8358 67.6893 61.8358 68.9129C61.8358 70.2426 62.4205 70.9153 63.5717 70.9153C63.9486 70.9307 64.3215 70.8335 64.6427 70.6359L64.6738 70.6178V69.583L64.5781 69.6218C64.3593 69.7325 64.1169 69.7884 63.8718 69.7847C63.4527 69.7847 62.9715 69.6554 62.9715 68.6516C62.9715 68.4809 62.9715 68.336 62.9715 68.1963C62.9715 67.547 62.9715 67.0322 63.0698 65.0505H64.5755V63.9795H59.0729C57.368 63.9795 56.5609 64.6573 56.3694 66.2405V66.3L57.5465 66.6027L57.5388 66.4992Z" fill="white"/>
<path d="M74.0718 60.9971C73.8578 60.8859 73.6116 60.853 73.3759 60.904C73.4158 60.6799 73.3869 60.449 73.2931 60.2417C73.2637 60.162 73.2387 60.0809 73.2181 59.9985L73.9218 58.0557H73.6631L72.7447 60.0244C72.4187 60.5185 72.486 61.0023 72.8999 61.3334H72.918L72.9672 61.3671C73.2049 61.5463 73.4901 61.6515 73.7872 61.6697C73.9543 61.6582 74.1173 61.6129 74.2663 61.5364C74.4153 61.4599 74.5472 61.3539 74.6539 61.2248L74.7703 61.1084H74.6073C74.4238 61.1019 74.2427 61.0642 74.0718 60.9971Z" fill="white"/>
<path d="M74.4157 59.0904C74.1079 59.2689 73.4818 59.6983 73.4818 60.195C73.483 60.3121 73.5201 60.426 73.5881 60.5213C73.6561 60.6166 73.7518 60.6887 73.8621 60.7279C73.9198 60.7464 73.98 60.756 74.0406 60.7564C74.1807 60.7545 74.3165 60.7084 74.4287 60.6245C74.5541 60.5268 74.6549 60.4009 74.7227 60.2571C74.7906 60.1133 74.8236 59.9556 74.8193 59.7966C74.8193 59.6569 74.8193 59.5172 74.7831 59.1059C74.7469 58.6946 74.7158 58.0711 74.6511 56.9224V56.8604H74.4209L74.4157 59.0904Z" fill="white"/>
<path d="M95.0113 63.7129C94.4641 63.2132 93.8737 62.7631 93.247 62.3677C92.4554 61.8503 91.7724 61.3846 91.3533 60.6602L91.2886 60.5464L91.2343 60.6654C90.8126 61.5786 90.5591 63.2524 90.5591 64.3622C90.5591 67.0553 91.656 68.5014 92.7787 69.7458L92.9443 69.9347C93.7566 70.8686 94.6802 71.9267 95.3011 73.7583L95.327 73.8333L95.3968 73.7971C96.5584 73.1788 97.3681 71.386 97.3681 69.4328C97.3681 67.1459 96.5532 65.1694 95.0113 63.7129ZM94.6181 69.469L94.274 68.7886C93.3453 66.9518 92.4631 65.2108 92.0052 63.123C94.0002 65.2589 95.308 67.9447 95.759 70.8324C95.6891 66.9001 94.1835 64.5278 92.6365 62.7479C95.2545 64.2691 96.6903 66.6285 96.6903 69.4328C96.6903 71.298 95.9556 72.3949 95.64 72.7804C95.0179 71.5231 94.2219 70.3596 93.2755 69.3242L93.2004 69.2284C92.2174 67.984 91.2886 66.8096 91.2886 64.3622C91.2886 64.0233 91.2886 63.8293 91.3197 63.3947C91.8848 65.6662 92.9766 67.7728 94.5069 69.544L94.851 69.9373L94.6181 69.469Z" fill="white"/>
<path d="M48.6649 60.5076C49.56 59.5556 50.0334 58.1793 50.0334 56.5572C50.0425 55.862 49.9748 55.168 49.8316 54.4876L49.7876 54.291L49.7048 54.4747C48.8873 56.2339 47.2886 57.3696 45.6303 57.3696C45.3716 57.3696 44.774 57.3256 44.4661 56.9763C44.5509 56.9959 44.6378 57.0055 44.7248 57.0048C44.8522 57.0015 44.9777 56.9728 45.0939 56.9205C45.2101 56.8682 45.3148 56.7932 45.4017 56.7C45.4886 56.6069 45.5561 56.4972 45.6003 56.3777C45.6444 56.2581 45.6643 56.131 45.6587 56.0036C45.6587 55.287 45.1232 54.8033 44.2928 54.767C43.9959 54.7551 43.6997 54.805 43.4231 54.9137C43.1465 55.0223 42.8956 55.1874 42.6863 55.3983C42.3539 55.7398 42.094 56.145 41.9224 56.5896C41.7508 57.0343 41.6709 57.509 41.6877 57.9853C41.6877 60.2282 43.3149 61.8658 45.5682 61.8658C46.1501 61.8649 46.7255 61.7438 47.2583 61.5101C47.7912 61.2763 48.27 60.9351 48.6649 60.5076ZM43.5607 56.3244C43.5607 57.3256 44.4118 58.0267 45.6303 58.0267C47.1333 58.0267 48.1216 57.3903 48.9443 56.6556C48.3544 58.1767 46.9548 59.2917 45.5967 59.2917C44.5127 59.2917 43.8013 58.8908 43.2864 57.9982L42.9786 57.4575L43.1623 58.0525C43.5322 59.2348 44.4558 59.9695 45.5967 59.9695C47.1489 59.9695 48.5148 59.0537 49.3711 57.442C48.9727 59.7833 47.5602 61.1673 45.563 61.1673C45.1394 61.1769 44.7182 61.1004 44.3249 60.9425C43.9317 60.7847 43.5746 60.5486 43.2752 60.2487C42.9758 59.9489 42.7403 59.5913 42.5831 59.1979C42.4258 58.8044 42.35 58.3831 42.3603 57.9594C42.3603 56.4822 43.2114 55.3232 44.2954 55.3232H44.3704C44.1325 55.3537 43.9155 55.4749 43.7646 55.6614C43.6138 55.8479 43.5407 56.0854 43.5607 56.3244Z" fill="white"/>
<path d="M50.8967 79.375C50.8934 79.1103 50.7869 78.8573 50.5999 78.6699C50.4129 78.4824 50.1602 78.3753 49.8955 78.3713C49.7125 78.3591 49.5301 78.4019 49.3715 78.494C49.213 78.5862 49.0855 78.7236 49.0056 78.8887C48.9665 78.774 48.9524 78.6523 48.9642 78.5317C49.0216 78.0693 49.1563 77.6197 49.3626 77.2019C49.5667 76.7367 49.7328 76.2556 49.8593 75.7636C50.325 76.5397 51.3986 77.0985 52.4981 77.0985C53.4863 77.0985 54.7513 76.6276 55.1963 75.5902L55.2274 75.5178L55.1498 75.4971C52.793 74.884 52.2575 72.7083 51.6883 70.4058C51.5305 69.7643 51.3675 69.1123 51.1709 68.4708L51.1425 68.3828L51.0674 68.4371C47.4016 71.0112 45.8365 73.3214 45.8365 76.1646C45.8365 79.344 47.5439 80.7695 49.2384 80.7695C50.2137 80.7772 50.8967 80.2003 50.8967 79.375ZM49.5023 70.4498C48.0044 72.8377 47.3111 75.2617 47.4948 77.4787L47.5413 78.0505L47.6293 77.4839C47.9371 75.4738 48.7857 72.6333 50.2499 70.5611C50.1568 72.7342 50.9329 75.2772 52.4101 75.7687L52.7283 75.8748L52.4696 75.6549C51.4865 74.7934 50.6923 72.4858 51.0209 70.6335C51.634 73.6008 52.6015 75.2255 54.1253 75.8619C53.654 76.224 53.0794 76.4262 52.4851 76.4388C52.1639 76.4511 51.8436 76.3968 51.5444 76.2792C51.2452 76.1617 50.9736 75.9835 50.7466 75.7558C50.1335 75.1298 49.8205 74.1027 49.8153 72.7005C49.8153 72.6152 49.8153 72.5246 49.8153 72.4418H49.6782C49.6782 72.5324 49.6782 72.6203 49.6782 72.7005C49.6672 74.1665 49.3537 75.6144 48.7572 76.9536C48.4985 77.5616 48.3123 78.0427 48.3123 78.5731C48.2998 78.8184 48.345 79.0632 48.4443 79.2878C48.5436 79.5125 48.6942 79.7107 48.884 79.8666C49.0812 80.0131 49.3188 80.0953 49.5644 80.102C49.1091 80.2173 48.6267 80.1485 48.2217 79.9105C47.13 79.3181 46.4781 77.9186 46.4781 76.1697C46.4988 74.0794 47.6396 71.9167 49.5049 70.4498H49.5023Z" fill="white"/>
<path d="M72.5479 87.3794C71.7668 87.3838 71.0031 87.6109 70.3464 88.0339C69.7148 87.6106 68.9724 87.3829 68.2121 87.3794C66.5745 87.3794 65.475 88.1555 65.475 89.3145C65.478 89.5123 65.5203 89.7076 65.5995 89.8889C65.6786 90.0702 65.793 90.234 65.9359 90.3707C66.0789 90.5074 66.2477 90.6144 66.4323 90.6853C66.617 90.7563 66.814 90.7898 67.0117 90.7839C67.7128 90.7839 68.1474 90.4502 68.1474 89.9147C68.1536 89.8252 68.1405 89.7355 68.1089 89.6515C68.0774 89.5676 68.0282 89.4914 67.9647 89.4281C67.9011 89.3648 67.8248 89.3159 67.7407 89.2847C67.6566 89.2535 67.5668 89.2407 67.4774 89.2472C67.3673 89.2495 67.2596 89.2803 67.1649 89.3365C67.0701 89.3927 66.9915 89.4725 66.9367 89.568C66.8845 89.6593 66.854 89.7615 66.8477 89.8665C66.8414 89.9715 66.8595 90.0765 66.9005 90.1734C66.6846 90.1487 66.4863 90.0426 66.346 89.8768C66.2056 89.7109 66.1338 89.4978 66.1451 89.2808C66.1451 88.5047 66.9031 87.9873 68.0776 87.9873C68.6987 87.9745 69.3107 88.1387 69.8419 88.4608C69.2909 89.0196 68.745 89.7103 68.745 90.5873C68.7297 90.8071 68.7598 91.0278 68.8334 91.2355C68.907 91.4432 69.0226 91.6336 69.1729 91.7947C69.3232 91.9559 69.5051 92.0844 69.7072 92.1722C69.9093 92.2601 70.1273 92.3054 70.3477 92.3054C70.5681 92.3054 70.7861 92.2601 70.9882 92.1722C71.1903 92.0844 71.3721 91.9559 71.5225 91.7947C71.6728 91.6336 71.7883 91.4432 71.8619 91.2355C71.9356 91.0278 71.9656 90.8071 71.9503 90.5873C71.9503 89.7103 71.4019 89.0351 70.8509 88.4608C71.4091 88.1445 72.0409 87.9812 72.6825 87.9873C73.8001 87.9873 74.5477 88.5047 74.5477 89.2808C74.559 89.4978 74.4871 89.7109 74.3468 89.8768C74.2064 90.0426 74.0081 90.1487 73.7923 90.1734C73.8333 90.0765 73.8513 89.9715 73.8451 89.8665C73.8388 89.7615 73.8083 89.6593 73.7561 89.568C73.7012 89.4725 73.6226 89.3927 73.5279 89.3365C73.4332 89.2803 73.3255 89.2495 73.2154 89.2472C73.1261 89.2407 73.0364 89.2534 72.9524 89.2847C72.8685 89.3159 72.7922 89.3648 72.7289 89.4282C72.6655 89.4915 72.6166 89.5677 72.5854 89.6517C72.5542 89.7356 72.5414 89.8254 72.5479 89.9147C72.5479 90.4502 72.9826 90.7839 73.6836 90.7839C73.8812 90.7894 74.0778 90.7556 74.2622 90.6845C74.4466 90.6134 74.615 90.5065 74.7577 90.3698C74.9004 90.2331 75.0146 90.0694 75.0936 89.8883C75.1725 89.7071 75.2147 89.5121 75.2177 89.3145C75.2152 88.1736 74.1208 87.3794 72.5479 87.3794ZM70.3464 88.8721C70.975 89.4335 71.2803 89.9949 71.2803 90.5821C71.2803 91.3194 70.8121 91.648 70.3464 91.648C69.8807 91.648 69.4125 91.3194 69.4125 90.5821C69.4125 89.9949 69.7203 89.4335 70.3464 88.8721Z" fill="white"/>
<path d="M59.4064 82.8444C61.3932 82.8444 63.3826 82.0321 65.3203 80.4282L65.4186 80.3454L65.297 80.3092C63.618 79.8073 62.2081 79.2407 60.9637 78.7414C58.9691 77.9395 57.3911 77.3057 55.7043 77.3057C53.1354 77.3057 50.9649 78.9691 50.9649 80.943C50.9521 81.1262 50.9772 81.3101 51.0385 81.4833C51.0997 81.6564 51.196 81.8151 51.3211 81.9495C51.4463 82.0839 51.5978 82.1911 51.7661 82.2645C51.9345 82.3379 52.1161 82.3759 52.2998 82.3762C52.9103 82.3762 53.3346 82.0192 53.3346 81.5096C53.3419 81.3611 53.3078 81.2135 53.236 81.0833C53.1643 80.9531 53.0578 80.8455 52.9285 80.7723C53.4329 80.7723 54.059 81.0931 54.8222 81.4785C56.0225 82.0865 57.5152 82.8444 59.4064 82.8444ZM59.1476 79.5357C57.8334 79.2123 56.5917 78.907 55.4948 78.907C54.8038 78.8972 54.1168 79.012 53.4666 79.2459L52.9647 79.4606L53.5054 79.3753C55.1015 79.1166 56.5425 79.5227 58.2111 79.9858C59.48 80.371 60.7776 80.6539 62.0917 80.8318C61.3828 80.8576 60.4748 80.8731 60.1721 80.8731C58.845 80.8731 56.7676 80.7464 55.4715 80.2005C58.0249 81.6053 60.4567 81.5509 62.6065 81.494C61.6023 81.9568 60.5119 82.2027 59.4064 82.2158C57.8205 82.2158 56.4882 81.5535 55.3137 80.9689C54.4677 80.5446 53.7356 80.1928 53.1018 80.1928C52.3076 80.1928 51.8083 80.4722 51.6349 81.0258V80.9922C51.6349 78.9019 54.0616 77.9266 55.7043 77.9266C57.2022 77.9266 59.0674 78.7027 60.8784 79.44C61.6053 79.7375 62.2986 80.0246 62.948 80.2445C61.6645 80.1226 60.3949 79.8827 59.1554 79.5279L59.1476 79.5357Z" fill="white"/>
<path d="M47.9481 69.7458C49.0708 68.4989 50.1677 67.0553 50.1677 64.3622C50.1677 63.2628 49.909 61.5786 49.4925 60.6654L49.4382 60.5464L49.3735 60.6602C48.9544 61.3846 48.2714 61.8399 47.4798 62.3677C46.8531 62.7631 46.2627 63.2132 45.7155 63.7129C44.1632 65.1694 43.3613 67.1459 43.3613 69.4328C43.3613 71.386 44.171 73.1788 45.33 73.7971L45.4024 73.8333L45.4257 73.7583C46.0466 71.9293 46.9779 70.8712 47.7799 69.9373L47.9481 69.7458ZM46.2147 69.544C47.7442 67.7726 48.8352 65.666 49.3994 63.3947C49.4304 63.8293 49.4304 64.0233 49.4304 64.3622C49.4304 66.8121 48.5017 67.984 47.5186 69.231L47.4488 69.3216C46.5001 70.3573 45.7023 71.5217 45.0791 72.7804C44.7634 72.3924 44.0287 71.2954 44.0287 69.4328C44.0287 66.631 45.4645 64.2588 48.0852 62.7479C46.533 64.5278 45.0299 66.8872 44.96 70.8324C45.4111 67.9447 46.7188 65.2589 48.7138 63.123C48.2533 65.2056 47.3763 66.9441 46.4502 68.7783C46.3338 69.0085 46.2173 69.2388 46.1035 69.469L45.8681 69.9373L46.2147 69.544Z" fill="white"/>
<path d="M46.4986 56.2442L46.659 56.1615C49.1166 54.8964 50.8318 51.9653 50.8318 49.029C50.8318 46.993 50.0557 45.684 49.4193 44.6311C48.9951 43.9274 48.6303 43.3195 48.6303 42.6857C48.6196 42.5593 48.64 42.4323 48.6898 42.3157L48.7803 42.1372L48.6018 42.2252C46.6435 43.172 45.4276 45.3555 45.4276 47.9166C45.4276 49.1558 45.7742 50.3795 46.1079 51.5617C46.4417 52.744 46.7625 53.8745 46.7625 55.0206C46.7603 55.3746 46.6937 55.7252 46.5658 56.0554L46.4986 56.2442ZM46.9617 47.0939C46.9617 48.5271 47.373 50.7856 48.0327 52.9846C47.7638 51.0326 47.6298 49.0644 47.6317 47.0939C47.6294 46.1394 47.716 45.1867 47.8904 44.2482C48.1818 45.6001 48.3823 46.97 48.4906 48.3486C48.5837 49.2489 48.6898 50.3148 48.7493 51.3806L48.7829 51.898L48.8838 51.3936C49.0451 50.3844 49.1126 49.3625 49.0856 48.3409C48.9938 47.0138 48.8053 45.6953 48.5216 44.3957C49.5797 46.2066 50.1514 47.5208 50.1514 49.0523C50.1514 51.3806 49.2331 53.3623 47.4196 54.9714C47.4196 53.7503 47.0807 52.5629 46.7469 51.4142C46.4132 50.2656 46.0847 49.1273 46.0847 47.9528C46.0847 46.4291 46.4701 45.1071 47.2074 44.0723C47.0391 45.0671 46.9569 46.0746 46.9617 47.0836V47.0939Z" fill="white"/>
<path d="M53.2997 33.8071C53.2997 35.173 53.874 36.9969 55.1597 37.9981H55.1753H55.1908C56.9241 38.2568 58.2771 39.377 58.4039 40.21L58.422 40.3316L58.5151 40.2514C58.8038 39.9903 59.0372 39.674 59.2016 39.3212C59.366 38.9684 59.4581 38.5862 59.4723 38.1973C59.4765 37.7334 59.3262 37.2814 59.0452 36.9123C58.7641 36.5432 58.3683 36.2781 57.9201 36.1587C60.2225 33.476 60.401 30.0016 60.401 28.9927C60.401 24.9362 58.29 23.1201 56.1971 23.1201C54.5337 23.1201 53.3281 24.2015 53.3281 25.689C53.3245 25.9514 53.3741 26.2118 53.4739 26.4545C53.5736 26.6972 53.7216 26.9172 53.9087 27.1012C54.0958 27.2852 54.3183 27.4293 54.5626 27.525C54.807 27.6206 55.0682 27.6658 55.3305 27.6578C55.6573 27.6694 55.9832 27.6176 56.2903 27.5051C55.9404 28.1878 55.5318 28.8387 55.0692 29.4506C54.2026 30.6872 53.2997 31.9522 53.2997 33.8071ZM57.1207 36.4769C58.2486 36.7356 58.8695 37.3436 58.8695 38.2102C58.8821 38.5832 58.7791 38.9509 58.5746 39.2631C58.1064 38.5543 57.5036 38.0136 56.2308 37.6954C56.5505 37.5908 56.8911 37.5668 57.2224 37.6255C57.5536 37.6842 57.8653 37.8237 58.1296 38.0317L58.3469 38.2024L58.2331 37.9437C57.8735 37.1676 57.0431 36.7951 55.9954 36.9477C58.6884 32.0014 59.5318 28.3304 58.4996 26.0357L58.2823 25.5545L58.3702 26.0719C58.7014 28.0251 58.66 30.964 55.4236 36.4458C55.2917 33.8795 55.941 32.5213 56.5645 31.2071C57.0614 30.2658 57.4104 29.2537 57.5993 28.2062C57.2966 29.241 56.6938 30.0171 56.2385 30.7725C55.4159 32.1566 54.5647 33.5846 54.6863 36.4795C54.1952 35.6717 53.9349 34.7447 53.9335 33.7993C53.9335 32.1488 54.8415 30.832 55.7185 29.5566C56.4947 28.4494 57.2009 27.4042 57.2009 26.2608C57.2009 25.6321 56.818 25.1923 56.267 25.1923C56.1519 25.1887 56.0372 25.2088 55.9301 25.2512C55.8231 25.2936 55.7258 25.3575 55.6444 25.4389C55.5629 25.5204 55.499 25.6176 55.4566 25.7247C55.4142 25.8318 55.3942 25.9464 55.3978 26.0616C55.3942 26.1786 55.4155 26.2951 55.4601 26.4035C55.5046 26.5118 55.5716 26.6095 55.6565 26.6902C55.8361 26.8544 56.0701 26.9466 56.3136 26.9489C56.0041 27.0962 55.6622 27.162 55.3201 27.1404C55.138 27.1354 54.9587 27.0942 54.7927 27.0191C54.6267 26.9441 54.4773 26.8367 54.3533 26.7033C54.2292 26.5699 54.133 26.413 54.0703 26.242C54.0075 26.071 53.9795 25.8891 53.9878 25.7071C53.9878 24.5119 54.8493 23.741 56.1868 23.741C57.9227 23.741 59.7879 25.3889 59.7879 29.0108C59.7825 31.7088 58.8189 34.3173 57.069 36.3708L56.9965 36.4562L57.1207 36.4769Z" fill="white"/>
<path d="M44.4298 43.4824C45.8191 43.4824 46.9806 42.6572 48.106 41.8578C49.102 41.1489 50.0437 40.4815 51.0371 40.4815H51.0655L51.0862 40.4582C52.121 39.2785 52.8376 37.3305 52.8376 35.6101C52.8376 32.3143 50.8715 30.3067 48.9701 30.2705H48.8795L48.9028 30.3585C49.0067 30.7221 49.0624 31.0979 49.0684 31.4761C49.0519 32.0711 48.9063 32.6555 48.6415 33.1887C48.3047 33.9053 48.1206 34.684 48.1008 35.4756C47.3933 34.9865 46.5574 34.7166 45.6975 34.6995C45.2117 34.6757 44.726 34.746 44.2669 34.9065L44.2358 34.922V34.9556C44.1271 35.7748 44.2631 36.6079 44.6268 37.3499C44.9904 38.092 45.5655 38.7099 46.2796 39.1259C45.8785 39.3112 45.5187 39.5751 45.2215 39.902C45.1206 39.3587 44.6446 39.0121 43.9694 39.0121C43.6878 39.018 43.4103 39.0801 43.1531 39.1946C42.8959 39.3092 42.6641 39.4739 42.4714 39.6792C42.2786 39.8845 42.1288 40.1261 42.0306 40.3901C41.9325 40.654 41.888 40.9349 41.8997 41.2162C41.892 42.5071 42.9837 43.4824 44.4298 43.4824ZM43.8504 39.651C43.7797 39.7122 43.7233 39.7882 43.6853 39.8736C43.6473 39.959 43.6286 40.0517 43.6305 40.1452C43.6269 40.2512 43.6451 40.3569 43.6839 40.4557C43.7228 40.5544 43.7815 40.6441 43.8564 40.7193C43.9314 40.7944 44.0209 40.8535 44.1195 40.8927C44.2181 40.9318 44.3238 40.9504 44.4298 40.9471C44.8877 40.9471 45.1516 40.6884 45.4646 40.378C46.0142 39.7667 46.7672 39.3759 47.5834 39.2785L47.8214 39.2423L47.5989 39.1492C45.4698 38.2618 44.7765 36.6242 44.836 35.3644C45.0989 35.3034 45.3681 35.2739 45.638 35.2764C46.8694 35.2764 47.9301 35.874 48.7838 37.0511L49.0425 37.4055L48.9028 36.989C48.7749 36.5411 48.7199 36.0755 48.7398 35.6101C48.7491 34.783 48.9315 33.9669 49.2753 33.2145C49.512 32.7213 49.6475 32.1856 49.6737 31.6391C49.676 31.4094 49.6517 31.1802 49.6013 30.9561C49.6634 30.9716 49.7332 30.9949 49.7901 31.0156L49.8471 31.0363C51.3475 31.6494 52.2064 33.3154 52.2064 35.6101C52.1779 36.7754 51.8832 37.9187 51.3449 38.9526C51.6968 35.8119 51.4251 33.6725 50.499 32.2263L50.2636 31.8615L50.3748 32.2806C50.9597 34.4147 51.0779 36.6497 50.7215 38.8335C50.3281 37.4277 50.023 35.9986 49.8083 34.5546L49.7255 33.9932L49.6737 34.5572C49.5211 36.2129 49.8833 38.0652 50.1058 39.0095C49.0063 37.7548 47.3868 36.3474 45.9225 35.9335L45.4517 35.8016L45.8682 36.0603C47.4049 37.0045 48.8174 38.2437 49.6246 39.3483C48.8485 38.9292 48.0931 38.461 47.3635 38.0031C47.1048 37.835 46.8332 37.6694 46.5719 37.5116L46.2226 37.2969L46.4813 37.6125C47.3012 38.497 48.263 39.2384 49.3271 39.8063C48.7502 39.8063 47.6895 39.8891 46.9574 40.347C46.6987 40.5022 46.4839 40.6522 46.264 40.7997C45.1051 41.5758 44.3393 42.0725 43.5632 41.4852L43.1105 41.1386L43.4701 41.5809C44.3781 42.6908 45.6147 41.9043 47.0453 40.9911L47.1954 40.8954C47.8526 40.515 48.6045 40.3292 49.3633 40.3599C48.7999 40.6649 48.2564 41.0054 47.736 41.3792C46.665 42.1139 45.5578 42.8719 44.4221 42.8719C43.3407 42.8719 42.5568 42.1708 42.5568 41.2058C42.5568 40.4064 43.0742 39.5786 43.9461 39.5734C43.9099 39.5947 43.8768 39.6208 43.8478 39.651H43.8504Z" fill="white"/>
<path d="M78.6533 47.4202C79.1526 47.4202 79.476 47.2262 79.8977 46.8692C80.1462 46.6255 80.4426 46.436 80.7681 46.3126C81.0936 46.1893 81.4411 46.1348 81.7888 46.1526C82.9167 46.1526 84.055 46.7709 84.055 48.1523C84.055 49.5778 83.103 50.3694 80.7721 50.8868L80.1202 51.0317V51.9682L81.0049 51.8207C82.8158 51.3706 85.1907 50.4936 85.1907 48.0851C85.1907 46.3155 83.7911 45.0815 81.7888 45.0815C79.8925 45.0815 78.1178 46.4578 78.1178 47.0839C78.1178 47.2702 78.3584 47.4202 78.6533 47.4202ZM78.912 46.551C78.9113 46.5288 78.9151 46.5067 78.9234 46.4861C78.9316 46.4656 78.944 46.4469 78.9598 46.4313C78.9756 46.4158 78.9944 46.4036 79.0152 46.3957C79.0359 46.3878 79.058 46.3843 79.0802 46.3854C79.1241 46.3854 79.1662 46.4028 79.1973 46.4339C79.2283 46.4649 79.2457 46.5071 79.2457 46.551C79.2457 46.5949 79.2283 46.637 79.1973 46.668C79.1662 46.6991 79.1241 46.7166 79.0802 46.7166C79.0587 46.7166 79.0374 46.7122 79.0176 46.7039C78.9978 46.6955 78.9799 46.6832 78.9649 46.6678C78.9499 46.6523 78.9382 46.634 78.9305 46.614C78.9227 46.5939 78.9191 46.5725 78.9198 46.551H78.912Z" fill="white"/>
<path d="M79.7344 53.2896L79.067 53.1551C78.2573 52.9922 78.1201 52.8964 78.1201 52.7541C78.1201 52.6119 78.1952 52.5213 78.6013 52.4204H78.6531V51.5098L78.5677 51.5357C77.5174 51.8254 77.0491 52.216 77.0491 52.8007C77.0491 53.3854 77.6648 53.7294 79.0411 53.9674L79.706 54.102C81.46 54.4693 81.7472 55.0255 81.8998 55.323C81.9696 55.455 82.0291 55.5817 82.1869 55.5817C82.3448 55.5817 82.3887 55.2661 82.3887 55.1135C82.3788 54.9732 82.3419 54.8362 82.2801 54.7099C82.13 54.4331 81.6825 53.6854 79.7344 53.2896Z" fill="white"/>
<path d="M79.7888 54.6354V54.3767L78.9843 54.2163V54.6457C78.0788 54.8423 77.5175 55.0467 77.5175 55.4218V55.4891H81.3229V55.4218C81.3229 55.0467 80.7383 54.8424 79.7888 54.6354Z" fill="white"/>
<path d="M57.4375 53.4244C59.3597 53.4244 60.0401 52.7026 60.0401 52.0869V52.0196H59.5563L57.8592 46.7343C58.4501 46.6041 59.0523 46.5314 59.6572 46.517C59.7263 46.6857 59.844 46.8299 59.9953 46.9315C60.1467 47.033 60.3248 47.0872 60.507 47.0872C60.6893 47.0872 60.8674 47.033 61.0187 46.9315C61.1701 46.8299 61.2878 46.6857 61.3569 46.517C61.9619 46.5296 62.5642 46.6024 63.1549 46.7343L61.4578 52.0196H60.9869V52.0869C60.9869 52.7026 61.6673 53.4244 63.5895 53.4244C65.4004 53.4244 66.0575 52.7337 66.0575 52.0869V52.0196H65.641L64.0888 46.9905L64.3268 47.0707L64.6036 46.2402L64.5389 46.2195C63.4983 45.8879 62.421 45.6855 61.331 45.6168C61.2652 45.4556 61.1521 45.3182 61.0066 45.2226C60.8611 45.127 60.6901 45.0777 60.5161 45.0812C60.3386 45.0814 60.1647 45.1318 60.0146 45.2266C59.8644 45.3213 59.7441 45.4566 59.6675 45.6168C58.5875 45.6838 57.5202 45.8863 56.4907 46.2195L56.426 46.2402L56.7028 47.0707L56.9434 46.9905L55.3912 52.0196H54.9747V52.0869C54.9695 52.7337 55.6163 53.4244 57.4375 53.4244ZM55.9604 52.0196L57.1711 47.8002V52.0196H55.9604ZM57.7066 52.0196V47.7898L58.9484 52.0196H57.7066ZM62.0657 52.0196L63.3075 47.7898V52.0196H62.0657ZM63.843 52.0196V47.7898L65.0874 52.0196H63.843Z" fill="white"/>
<path d="M78.9842 52.8812L79.7887 53.0442V50.4132C81.416 50.0614 82.9889 49.6009 82.9889 48.2893V48.2246H75.7814V48.2919C75.7814 49.5854 77.3569 50.051 78.9842 50.4158V52.8812Z" fill="white"/>
<path d="M80.7537 38.5773C80.1535 39.0456 79.5533 39.1775 78.4254 39.1775C76.5239 39.1775 74.4207 38.0444 73.4868 38.0444C72.6874 38.0444 72.3536 38.5101 72.2191 39.6458C73.2203 39.6458 76.1566 41.1126 78.2236 41.1126C79.7551 41.1126 80.6217 40.5797 80.7537 38.5773ZM73.6627 39.5113C73.5289 39.4826 73.4104 39.4054 73.3301 39.2946C73.2499 39.1838 73.2135 39.0471 73.2281 38.9111C73.2281 38.5437 73.4298 38.3445 73.6963 38.3781C74.0637 38.4454 74.162 38.7455 74.162 39.0792C74.1711 39.1443 74.1637 39.2105 74.1407 39.2719C74.1176 39.3334 74.0795 39.3881 74.0298 39.4311C73.9802 39.474 73.9206 39.5038 73.8565 39.5179C73.7923 39.5319 73.7257 39.5296 73.6627 39.5113ZM74.8294 39.8786L74.6639 39.3793V39.8114L74.3301 39.713V38.5773L74.6639 38.6782C74.9976 38.7791 75.1295 38.9111 75.1295 39.1129C75.1311 39.1723 75.1122 39.2305 75.0759 39.2776C75.0396 39.3247 74.9882 39.3579 74.9303 39.3716L75.189 40.0054L74.8294 39.8786ZM75.6288 40.1373L75.2977 40.039V38.8697L75.6624 39.0042C75.8237 39.0435 75.9659 39.1385 76.0639 39.2725C76.1619 39.4064 76.2094 39.5707 76.198 39.7363C76.185 40.1114 75.8849 40.2046 75.6159 40.1451L75.6288 40.1373ZM76.9973 40.4711L76.3299 40.3055V39.2034L76.9663 39.3716V39.5708L76.6636 39.4699V39.77L76.9223 39.8036V40.0054L76.6636 39.9381V40.1968L76.9973 40.2641V40.4711ZM78.0658 40.6392L77.6648 40.6056L77.3647 39.7363L77.3983 40.572L77.1991 40.5383V39.4363L77.6312 39.5035L77.8899 40.3391L77.8562 39.5371H78.0606L78.0658 40.6392Z" fill="white"/>
<path d="M63.1412 40.3136C63.1412 40.1791 63.0739 40.1118 62.9756 40.1118V40.5128C63.0739 40.5128 63.1412 40.4455 63.1412 40.3136Z" fill="white"/>
<path d="M75.6158 39.1699V39.9719C75.7504 40.0055 75.8513 39.9383 75.8513 39.6718C75.8513 39.3122 75.7504 39.2113 75.6158 39.1699Z" fill="white"/>
<path d="M66.3108 38.8105L66.2435 39.4133L66.4117 39.3461L66.3108 38.8105Z" fill="white"/>
<path d="M62.5387 41.113C64.6084 41.113 67.542 39.5789 68.5432 39.5789C68.4113 38.4458 68.0775 37.9775 67.2756 37.9775C66.308 37.9775 64.2074 39.1779 62.3395 39.1779C61.5039 39.1779 60.6037 39.046 60.0112 38.5777C60.1406 40.5801 61.0072 41.113 62.5387 41.113ZM66.5409 38.5441L66.7996 39.5789V38.4768L67.1307 38.4121C67.467 38.3449 67.6662 38.4768 67.6662 38.8106C67.6662 39.1443 67.4981 39.3461 67.1307 39.478L66.7996 39.5789L66.4658 39.6798L66.4322 39.5116L66.1994 39.6125L66.1657 39.8117L65.907 39.9126L66.1425 38.6786L66.5409 38.5441ZM65.2085 38.9787L65.9847 38.7459V38.9787L65.7854 39.0123V39.9463L65.4517 40.0472V39.1132L65.2189 39.2116L65.2085 38.9787ZM64.4066 39.2116L64.7739 39.1132C64.8225 39.0942 64.875 39.0873 64.9268 39.0933C64.9787 39.0992 65.0282 39.1179 65.0712 39.1475C65.1141 39.1772 65.1491 39.2169 65.1731 39.2633C65.197 39.3096 65.2092 39.3611 65.2085 39.4133C65.2069 39.4677 65.1903 39.5206 65.1606 39.5662C65.131 39.6118 65.0894 39.6484 65.0404 39.672L65.2991 40.0704L64.9317 40.1713L64.7325 39.804V40.2386L64.3988 40.3395L64.4066 39.2116ZM63.6072 39.4133L64.241 39.2788V39.478L63.9409 39.5116V39.7703L64.241 39.7056V39.9049L63.9409 39.9385V40.2386L64.2746 40.1713V40.3705L63.6072 40.5051V39.4133ZM62.6396 39.5453L63.007 39.5116C63.2657 39.478 63.439 39.5453 63.439 39.7445C63.4394 39.8088 63.4157 39.871 63.3726 39.9188C63.3296 39.9666 63.2702 39.9967 63.2062 40.0032C63.3407 40.0032 63.4649 40.0368 63.4649 40.236C63.4649 40.4352 63.333 40.5697 63.0639 40.6034L62.6319 40.637L62.6396 39.5453ZM62.1041 39.5453H62.4404V40.6137H62.1041V39.5453ZM61.372 39.478L61.7057 39.5116V40.4119H61.9644V40.6137C61.7575 40.6087 61.5535 40.563 61.3642 40.4792L61.372 39.478Z" fill="white"/>
<path d="M74.6509 38.8442V39.2789C74.7518 39.3125 74.8165 39.2452 74.8165 39.1133C74.8165 38.9814 74.7828 38.8779 74.6509 38.8442Z" fill="white"/>
<path d="M64.867 39.4441C64.867 39.3458 64.8334 39.2449 64.7325 39.2786V39.6873C64.8437 39.6459 64.867 39.5787 64.867 39.4441Z" fill="white"/>
<path d="M63.1412 39.8118C63.1423 39.7897 63.1388 39.7677 63.1308 39.7471C63.1229 39.7265 63.1107 39.7078 63.0951 39.6922C63.0795 39.6766 63.0608 39.6645 63.0402 39.6566C63.0196 39.6486 62.9976 39.6451 62.9756 39.6462V39.9799C62.9979 39.9811 63.0201 39.9775 63.0409 39.9694C63.0617 39.9613 63.0805 39.9489 63.0961 39.933C63.1118 39.9171 63.1239 39.8981 63.1316 39.8772C63.1394 39.8563 63.1426 39.834 63.1412 39.8118Z" fill="white"/>
<path d="M73.6832 38.5105C73.5487 38.4769 73.5487 38.6787 73.5487 38.9451C73.5487 39.1443 73.5487 39.3461 73.6832 39.3798C73.8178 39.4134 73.8152 39.2116 73.8152 38.9788C73.8152 38.7459 73.8152 38.5441 73.6832 38.5105Z" fill="white"/>
<path d="M68.9462 38.1117C68.9932 38.5912 69.1055 39.0621 69.2799 39.5112C70.0032 39.3353 70.7581 39.3353 71.4814 39.5112C71.6546 39.0617 71.7669 38.591 71.8152 38.1117C71.8152 37.5762 71.4142 37.377 70.3457 37.377C69.3446 37.377 68.9462 37.5762 68.9462 38.1117ZM70.6122 37.853H70.8166L70.5579 38.5541V38.9111H70.2242V38.5437L69.9655 37.8426H70.3018L70.4673 38.3445L70.6122 37.853Z" fill="white"/>
<path d="M67.3451 38.8777C67.3451 38.544 67.2778 38.5439 67.1433 38.5439V39.3201C67.2778 39.245 67.3451 39.17 67.3451 38.8777Z" fill="white"/>
<path d="M62.0421 86.4787C62.0421 86.6779 61.8093 86.7374 61.5428 86.6779L61.6101 87.0453C61.7071 87.0804 61.8112 87.0917 61.9135 87.0784C62.0158 87.0651 62.1134 87.0275 62.1983 86.9688C62.2831 86.91 62.3526 86.8318 62.4011 86.7407C62.4495 86.6496 62.4755 86.5483 62.4768 86.4451C62.4768 85.8449 61.8429 85.744 61.8429 85.4103C61.8429 85.1516 62.0758 85.1102 62.3422 85.1774L62.2776 84.8101C61.8093 84.7428 61.442 85.0119 61.442 85.4103C61.442 86.0105 62.0421 86.0777 62.0421 86.4787Z" fill="white"/>
<path d="M64.644 85.6795L65.0113 85.5787L65.0786 85.9796L65.4123 85.8788L65.0786 83.8428L64.512 84.0109L64.1447 86.2461L64.5767 86.1116L64.644 85.6795ZM64.7448 84.6784L64.7785 84.2437L64.8457 84.2101L64.8794 84.6447L64.944 85.2449L64.6853 85.3122L64.7448 84.6784Z" fill="white"/>
<path d="M63.2789 85.7104C63.3495 85.7104 63.4173 85.6823 63.4673 85.6324C63.5172 85.5824 63.5453 85.5146 63.5453 85.444C63.5453 85.3733 63.5172 85.3055 63.4673 85.2556C63.4173 85.2056 63.3495 85.1775 63.2789 85.1775C63.2082 85.1775 63.1404 85.2056 63.0904 85.2556C63.0405 85.3055 63.0124 85.3733 63.0124 85.444C63.0124 85.5146 63.0405 85.5824 63.0904 85.6324C63.1404 85.6823 63.2082 85.7104 63.2789 85.7104Z" fill="white"/>
<path d="M53.6705 89.9818C53.5187 90.0462 53.3632 90.1015 53.2048 90.1474V89.4463L53.6032 89.3816V89.0479L53.2048 89.1799V88.5822L53.6705 88.5176V88.1838C53.4118 88.2485 53.1376 88.3158 52.8038 88.383V90.5173C53.0962 90.467 53.3855 90.4004 53.6705 90.3181V89.9818Z" fill="white"/>
<path d="M60.5752 87.1461L61.0098 86.9779L61.077 87.3789L61.4082 87.2444L60.9425 85.2446L60.4096 85.4438L60.1509 87.7722L60.5519 87.604L60.5752 87.1461ZM60.676 86.1785V85.6793L60.7407 85.6456L60.808 86.1449L60.9425 86.6442L60.6088 86.7787L60.676 86.1785Z" fill="white"/>
<path d="M51.1014 89.146L51.2359 89.948H51.1687L51.0342 89.3478L50.7677 88.5458L50.434 88.5122V90.4473L50.7677 90.5146V89.8807L50.6357 89.0814H50.7004L50.835 89.6815L51.1014 90.5818L51.4351 90.6155V88.5458H51.1014V89.146Z" fill="white"/>
<path d="M54.2034 89.2805L54.338 89.2469L54.4052 89.5056L54.7053 89.9738L55.1037 89.8393L54.5372 89.1072C54.6407 89.0372 54.7254 88.9428 54.7836 88.8322C54.8419 88.7216 54.8718 88.5983 54.8709 88.4734C54.8709 88.1396 54.6122 87.9042 54.1388 88.0388L53.8801 88.106V90.2403L54.2138 90.1394L54.2034 89.2805ZM54.2034 88.313C54.4052 88.2457 54.5372 88.3802 54.5372 88.5717C54.538 88.6672 54.5049 88.7599 54.4438 88.8333C54.3827 88.9068 54.2975 88.9561 54.2034 88.9727V88.313Z" fill="white"/>
<path d="M66.5465 85.6124V85.3123C66.2127 85.4442 65.9126 85.245 65.9126 84.6449C65.9126 84.1093 66.0808 83.8429 66.4792 83.8429V83.5091C65.9463 83.4445 65.5453 83.9101 65.5453 84.6449C65.5453 85.646 66.0808 85.8116 66.5465 85.6124Z" fill="white"/>
<path d="M55.6704 88.8409C55.7215 88.8409 55.7715 88.8257 55.8141 88.7973C55.8566 88.7689 55.8898 88.7285 55.9094 88.6812C55.9289 88.6339 55.9341 88.5819 55.9241 88.5317C55.9141 88.4815 55.8895 88.4354 55.8533 88.3993C55.8171 88.3631 55.771 88.3384 55.7208 88.3285C55.6706 88.3185 55.6186 88.3236 55.5714 88.3432C55.5241 88.3628 55.4837 88.3959 55.4553 88.4385C55.4268 88.481 55.4117 88.531 55.4117 88.5822C55.4094 88.6168 55.4145 88.6514 55.4267 88.6838C55.4389 88.7163 55.4579 88.7457 55.4824 88.7702C55.5068 88.7947 55.5363 88.8137 55.5687 88.8259C55.6011 88.8381 55.6358 88.8432 55.6704 88.8409Z" fill="white"/>
<path d="M60.0092 87.4801L59.6082 87.6793V85.7778L59.2745 85.9124V88.1475L60.0092 87.8474V87.4801Z" fill="white"/>
<path d="M58.208 88.6134C58.5391 88.6134 58.9401 88.2796 58.9401 87.6122V86.0444L58.5391 86.2126V87.8062C58.5391 88.0649 58.4072 88.2072 58.2804 88.2072C58.2158 88.2072 58.1485 88.1399 58.1485 88.0054V86.404L57.8148 86.5386V88.1399C57.807 88.4142 57.939 88.6134 58.208 88.6134Z" fill="white"/>
<path d="M56.8729 88.6804L57.2713 88.5148L57.3385 88.9805L57.6722 88.846L57.3385 86.7764L56.7383 87.0351L56.4046 89.3375L56.8056 89.1694L56.8729 88.6804ZM57.0074 87.2446L57.072 87.2136L57.1393 87.7129L57.2066 88.1811L56.8729 88.313L57.0074 87.2446Z" fill="white"/>
<path d="M51.9033 90.6156L52.3017 90.582V88.8151C52.369 88.8151 52.6691 88.7814 52.6691 88.7814V88.4141C52.3067 88.4872 51.939 88.5313 51.5696 88.546V88.8797L51.9033 88.8461V90.6156Z" fill="white"/>
<path d="M83.9252 88.2796C83.9764 88.2796 84.0264 88.2644 84.0689 88.236C84.1115 88.2076 84.1446 88.1672 84.1642 88.1199C84.1838 88.0726 84.1889 88.0206 84.1789 87.9704C84.1689 87.9202 84.1443 87.8742 84.1081 87.838C84.072 87.8018 84.0259 87.7772 83.9757 87.7672C83.9255 87.7572 83.8735 87.7623 83.8262 87.7819C83.7789 87.8015 83.7385 87.8346 83.7101 87.8772C83.6817 87.9197 83.6665 87.9697 83.6665 88.0209C83.6646 88.0554 83.67 88.0898 83.6824 88.1221C83.6947 88.1543 83.7137 88.1836 83.7381 88.208C83.7625 88.2324 83.7918 88.2514 83.824 88.2637C83.8563 88.276 83.8907 88.2815 83.9252 88.2796Z" fill="white"/>
<path d="M83.1564 88.4813L82.6235 88.3131V87.6457L83.0917 87.8138V87.4801L82.6235 87.3119V86.7454L83.1564 86.9782V86.6445L82.2897 86.2461V88.5123L83.1564 88.8486V88.4813Z" fill="white"/>
<path d="M85.4927 89.8134L85.8265 87.78L85.4927 87.6454L85.2936 88.8484L85.2599 89.415L85.159 89.3813V88.8122L84.9909 87.4462L84.6261 87.2781L84.8926 89.5805L85.4927 89.8134Z" fill="white"/>
<path d="M81.3563 87.2887H81.4908L81.5219 87.4905L81.7806 88.2899L82.2462 88.4917L81.7469 87.1982C81.8296 87.136 81.8962 87.0549 81.9412 86.9618C81.9862 86.8686 82.0083 86.7661 82.0056 86.6627C82.0056 86.3289 81.8711 86.0625 81.3382 85.8633L81.0045 85.7288V87.9976L81.3382 88.1321L81.3563 87.2887ZM81.3563 86.2229C81.4556 86.2406 81.5449 86.2946 81.6066 86.3745C81.6682 86.4543 81.698 86.5543 81.69 86.6549C81.69 86.9136 81.4908 87.0223 81.3563 86.955V86.2229Z" fill="white"/>
<path d="M86.8283 89.8807L86.2928 89.7488V89.115L86.6937 89.2469V88.9132L86.2928 88.8123V88.2457L86.8283 88.4475V88.1138L85.959 87.8137V89.948L86.8283 90.2481V89.8807Z" fill="white"/>
<path d="M88.8279 90.7163C89.1616 90.7163 89.3945 90.4576 89.3945 89.9816V88.5458H89.0297V90.0488C89.0297 90.248 88.8952 90.3075 88.8279 90.3075C88.696 90.3075 88.6287 90.2066 88.6287 89.9738V88.507L88.2277 88.4397V89.9738C88.2277 90.5145 88.4942 90.7163 88.8279 90.7163Z" fill="white"/>
<path d="M89.9947 89.8469L89.8964 89.0475H89.9636L90.2301 90.1807L90.4965 90.1134L90.7294 88.913L90.7966 88.8794L90.6957 89.6477V90.3152L91.0295 90.147V88.3464L90.6285 88.4137L90.4293 89.2803L90.3956 89.7486H90.331L90.2973 89.314L90.0283 88.512L89.6635 88.5456V90.5816L89.9947 90.548V89.8469Z" fill="white"/>
<path d="M79.3545 87.2886L79.489 86.823L79.89 86.9885V87.4904L80.8239 87.8914V87.4568L80.2884 87.255V86.6548L80.6894 86.823V86.4893L80.2884 86.3211V85.7882L80.8239 86.021V85.6562L79.6571 85.188L79.0544 87.1567L79.3545 87.2886ZM79.7218 85.9951L79.8227 85.5605L79.89 85.5941V86.66L79.5899 86.5281L79.7218 85.9951Z" fill="white"/>
<path d="M87.3743 89.6816H87.5088L87.5424 89.8471L87.7752 90.481L88.1737 90.5819L87.7752 89.5807C87.8579 89.519 87.9245 89.4385 87.9695 89.3457C88.0145 89.253 88.0366 89.1508 88.034 89.0478C88.0448 88.8647 87.9904 88.6838 87.8806 88.537C87.7707 88.3902 87.6124 88.287 87.4338 88.2458L87.0328 88.1475V90.3154L87.3665 90.3826L87.3743 89.6816ZM87.3743 88.6131C87.4206 88.6144 87.4662 88.6251 87.5083 88.6444C87.5504 88.6637 87.5882 88.6914 87.6194 88.7257C87.6506 88.76 87.6745 88.8003 87.6897 88.844C87.7049 88.8878 87.7111 88.9343 87.708 88.9805C87.708 89.2392 87.5735 89.3815 87.3743 89.3815V88.6131Z" fill="white"/>
<path d="M49.7692 90.1807C49.8935 90.255 50.0276 90.3116 50.1676 90.3488V88.4473L49.7692 88.3464V90.1807Z" fill="white"/>
<path d="M70.3485 84.8102L69.8802 84.8439V84.1764H70.2812V83.8427L69.8802 83.8763V83.3098L70.3485 83.2761V82.9424L69.5491 82.976V85.1776L70.3485 85.1439V84.8102Z" fill="white"/>
<path d="M71.0159 84.4429L70.9487 83.509H71.0159L71.1504 84.1764L71.2824 84.7119H71.5489L71.6834 84.1764L71.8153 83.5762H71.8826L71.8153 84.5101V85.2112L72.149 85.2448V83.0769L71.7506 83.0433L71.4816 83.8427L71.4169 84.3782H71.3833L71.3496 83.8427L71.0832 82.976L70.6822 82.9424V85.1439H71.0159V84.4429Z" fill="white"/>
<path d="M67.1118 85.0119L67.4792 84.9111L67.5464 85.3793L67.9474 85.312L67.5464 83.2424L66.9463 83.377L66.6876 85.5785L67.0523 85.4776L67.1118 85.0119ZM67.2127 83.5762H67.28L67.4119 84.5773L67.1532 84.6446L67.2127 83.5762Z" fill="white"/>
<path d="M69.2799 84.1091C69.2799 83.3098 68.9151 83.0433 68.3796 83.1106L68.1468 83.1442V85.2785L68.4055 85.2448C68.8815 85.1776 69.2799 84.9111 69.2799 84.1091ZM68.4805 83.4443C68.7392 83.377 68.9488 83.6435 68.9488 84.1764C68.9488 84.5774 68.747 84.9111 68.4805 84.9111V83.4443Z" fill="white"/>
<path d="M72.7494 83.1779L72.4156 83.1106V85.2785L72.7494 85.3122V83.1779Z" fill="white"/>
<path d="M78.4881 86.9781C78.5598 87.0018 78.6362 87.0077 78.7106 86.9951C78.7851 86.9826 78.8553 86.952 78.9153 86.9061C78.9752 86.8602 79.023 86.8003 79.0545 86.7317C79.086 86.6631 79.1003 86.5878 79.096 86.5124V84.9447L78.7623 84.8438V86.4452C78.7623 86.5797 78.6951 86.678 78.5631 86.6444C78.4312 86.6107 78.3044 86.4451 78.3044 86.1787V84.6782L77.9707 84.5437V86.1114C77.9552 86.6443 78.1544 86.8798 78.4881 86.9781Z" fill="white"/>
<path d="M77.0855 86.4451H77.1528L77.753 86.6443V86.2537L77.4943 86.1864L77.2951 86.2537C77.5538 86.1192 77.6288 85.8527 77.6288 85.4517C77.6288 84.6523 77.4296 84.1841 76.9614 84.1841C76.5604 84.1841 76.3612 84.6523 76.3612 85.2525C76.3534 85.9795 76.5526 86.4451 77.0855 86.4451ZM76.9872 84.5437C77.2201 84.5437 77.2873 84.911 77.2873 85.3198C77.2873 85.7854 77.2201 86.1192 77.0286 86.1192C76.7699 86.1192 76.6949 85.7182 76.6949 85.3198C76.6871 84.8438 76.7673 84.5437 76.9872 84.5437Z" fill="white"/>
<path d="M75.4192 85.1104C75.4704 85.1104 75.5204 85.0953 75.563 85.0668C75.6055 85.0384 75.6386 84.998 75.6582 84.9507C75.6778 84.9034 75.6829 84.8514 75.673 84.8012C75.663 84.7511 75.6383 84.705 75.6022 84.6688C75.566 84.6326 75.5199 84.608 75.4697 84.598C75.4195 84.588 75.3675 84.5931 75.3202 84.6127C75.2729 84.6323 75.2326 84.6654 75.2041 84.708C75.1757 84.7505 75.1605 84.8005 75.1605 84.8517C75.1586 84.8862 75.1641 84.9207 75.1764 84.9529C75.1887 84.9851 75.2077 85.0144 75.2321 85.0388C75.2565 85.0632 75.2858 85.0822 75.3181 85.0945C75.3503 85.1069 75.3848 85.1123 75.4192 85.1104Z" fill="white"/>
<path d="M73.3858 84.9785L73.7506 85.0458V85.4778L74.6172 85.6796V85.3459L74.0843 85.245V84.6112L74.5525 84.712V84.3783L74.0843 84.311V83.7781L74.6172 83.91V83.5763C74.3585 83.5091 73.8178 83.3771 73.5514 83.3435L72.8839 85.3459L73.2513 85.4105L73.3858 84.9785ZM73.6445 84.0782L73.7454 83.6772H73.779L73.7454 84.0782V84.7017L73.4453 84.6681L73.6445 84.0782Z" fill="white"/>
<path d="M61.8067 35.031C61.8067 35.6338 61.3385 36.0994 60.6063 36.0994C60.0062 36.0994 59.6052 35.6985 59.5379 35.031C59.8716 35.2897 60.6063 35.0983 60.7383 35.6338C60.8055 35.0983 61.473 35.0983 61.7395 34.6973C61.7935 34.7997 61.8168 34.9156 61.8067 35.031Z" fill="white"/>
<path d="M62.2077 36.1018C62.2077 36.8365 61.5403 37.2349 60.6736 37.2349C60.0062 37.2349 59.6052 36.9762 59.5379 36.1691C59.9389 36.5701 60.8728 36.301 61.0073 36.9012C61.0073 36.2363 61.9412 36.1691 62.1404 35.7681C62.2015 35.8679 62.2253 35.9861 62.2077 36.1018Z" fill="white"/>
<path d="M60.6063 34.9686C60.3774 34.9804 60.1528 34.9037 59.9789 34.7544C59.8051 34.6051 59.6953 34.3946 59.6723 34.1666C59.6622 34.0512 59.6856 33.9354 59.7396 33.8329C59.9983 34.1666 60.6063 34.0347 60.6735 34.6995C60.6063 34.0347 61.4056 33.9001 61.5402 33.7656C61.5738 34.4331 61.2064 34.9686 60.6063 34.9686Z" fill="white"/>
<path d="M62.7966 37.1704C62.7966 38.0371 61.8626 38.57 61.0632 38.57C60.7915 38.5844 60.5242 38.4965 60.314 38.3236C60.1038 38.1508 59.966 37.9055 59.9276 37.6361C60.0284 37.737 60.2613 37.7034 60.9287 37.7034C61.1874 37.7034 61.5289 37.7034 61.6634 38.0371V37.7784C61.6634 37.1109 62.5974 36.9091 62.6646 36.5107C62.733 36.725 62.7773 36.9463 62.7966 37.1704Z" fill="white"/>
<path d="M60.606 33.9004C60.4634 33.8389 60.3426 33.7359 60.2591 33.605C60.1756 33.474 60.1333 33.321 60.1378 33.1657C60.1855 32.706 60.3988 32.2794 60.738 31.9653C60.738 32.4983 60.9967 32.832 60.9967 33.233C60.9899 33.3674 60.9509 33.4983 60.8829 33.6144C60.8149 33.7306 60.7199 33.8287 60.606 33.9004Z" fill="white"/>
<path d="M75.3492 20.9575C77.0178 20.9575 79.0848 22.5589 79.3513 26.962C78.7511 26.962 78.5519 26.4938 78.4846 25.7616C78.0837 22.9599 76.6168 21.6224 75.551 21.6224C73.4813 21.6224 75.15 24.8924 73.0131 25.358C73.0131 25.891 72.8812 26.5584 72.6147 26.5584C72.281 26.5584 72.1465 25.9582 72.0145 25.4926C72.0145 26.2247 71.8127 26.8249 71.5463 26.8249C71.3471 26.8249 71.1479 26.2247 71.0133 25.6918C71.0133 26.3592 70.6796 27.0267 70.3459 27.0267C70.0872 27.0267 69.7457 26.3592 69.7457 25.6918C69.6112 26.2247 69.412 26.8249 69.2102 26.8249C68.9515 26.8249 68.7445 26.2247 68.7445 25.4926C68.61 25.9582 68.4858 26.5584 68.1443 26.5584C67.8856 26.5584 67.7433 25.891 67.7433 25.358C65.6091 24.8924 67.2777 21.6224 65.2081 21.6224C64.1422 21.6224 62.6754 22.9573 62.2744 25.7616C62.2071 26.4938 62.0157 26.962 61.4052 26.962C61.6639 22.5641 63.7335 20.9575 65.4099 20.9575C67.8779 20.9575 66.6102 24.0257 67.7382 24.0257C68.2064 24.0257 68.6048 23.4928 69.0058 22.8253C68.953 22.952 68.9308 23.0894 68.9411 23.2263C68.9411 23.7593 69.4741 24.093 70.3407 24.093C71.2746 24.093 71.8076 23.7593 71.8076 23.2263C71.8179 23.0894 71.7957 22.952 71.7429 22.8253C72.1413 23.4928 72.475 24.0257 73.0079 24.0257C74.0815 24.0257 72.8863 20.9575 75.3492 20.9575Z" fill="white"/>
<path d="M62.0215 33.3675C62.3526 33.233 62.6217 32.8992 62.6217 31.9653C62.9163 33.381 63.3406 34.7666 63.8893 36.1046C64.2204 36.9712 64.5542 37.5041 64.5542 37.7732C64.5644 37.8432 64.5502 37.9147 64.5139 37.9754C64.4776 38.0362 64.4215 38.0827 64.355 38.1069C63.3409 36.9014 62.5389 35.1008 62.0215 33.3675Z" fill="white"/>
<path d="M63.7409 25.6271C63.64 26.4291 63.2753 26.7628 62.7397 26.7628C62.8022 25.704 63.0509 24.6645 63.4745 23.6921C63.9401 22.6935 64.7421 22.0933 65.1405 22.0933C65.275 22.0933 65.3992 22.1579 65.3992 22.2925C65.3992 22.427 65.1974 22.4917 64.931 22.7581C64.4084 23.2937 63.9065 24.2922 63.7409 25.6271Z" fill="white"/>
<path d="M62.7403 27.2956C63.074 27.2956 63.4077 27.0964 63.6069 26.2944C63.5524 26.7822 63.5299 27.2731 63.5397 27.7639V29.0962C63.5397 29.5644 63.475 30.1646 62.8748 30.2319C62.7673 29.257 62.7224 28.2762 62.7403 27.2956Z" fill="white"/>
<path d="M62.9388 30.7646C63.3398 30.7646 63.6735 30.4309 63.6735 29.6289C64.0072 32.6324 64.8092 34.3011 65.2076 35.4342C65.3855 35.8832 65.4978 36.3554 65.5413 36.8363C65.5534 36.9228 65.5339 37.0107 65.4864 37.0839C65.4389 37.1571 65.3665 37.2107 65.2826 37.2347C64.0852 35.2523 63.2888 33.054 62.9388 30.7646Z" fill="white"/>
<path d="M64.0753 27.2284C64.409 27.2284 64.7427 27.0292 64.9419 26.1626C64.8773 26.7628 64.81 27.2285 64.81 27.5622C64.81 28.0304 64.8773 28.6306 64.8773 28.9644C64.8773 29.4973 64.81 30.0302 64.2072 30.1647C64.0788 29.4822 64.0121 28.7895 64.008 28.0951C63.9943 27.8045 64.0169 27.5134 64.0753 27.2284Z" fill="white"/>
<path d="M65.0096 25.6273C64.8777 26.4293 64.6759 26.6957 64.1429 26.6957C64.2749 24.9598 64.6086 24.0259 65.2088 23.1593C65.3433 22.9601 65.5425 22.7583 65.7443 22.7583C65.7964 22.762 65.8453 22.7845 65.8819 22.8216C65.9186 22.8588 65.9405 22.908 65.9435 22.9601C65.9435 23.092 65.8762 23.1593 65.809 23.2938C65.3433 23.9069 65.1415 24.8952 65.0096 25.6273Z" fill="white"/>
<path d="M64.2073 30.6325C64.6083 30.5678 64.8774 30.2341 64.942 29.4321C65.1412 31.3672 65.8087 33.3127 66.277 34.5699C66.4391 34.9734 66.5268 35.4029 66.5357 35.8376C66.538 35.925 66.5215 36.0119 66.4871 36.0922C66.4527 36.1726 66.4013 36.2446 66.3364 36.3033C65.343 34.9011 64.4764 32.2313 64.2073 30.6325Z" fill="white"/>
<path d="M65.3431 26.6956C65.7441 26.6956 66.0778 26.3619 66.2097 25.7617C66.1569 26.2046 66.1345 26.6506 66.1425 27.0966C66.1425 27.6968 66.2097 28.2297 66.2097 28.5634C66.2097 29.1636 65.8087 29.5646 65.4103 29.5646C65.3568 28.9876 65.3344 28.4082 65.3431 27.8287V26.6956Z" fill="white"/>
<path d="M65.943 24.2275C66.0775 24.2275 66.2017 24.4267 66.2017 24.895C66.2017 25.4952 66.0025 26.1626 65.4023 26.1626C65.6092 24.494 65.7438 24.2275 65.943 24.2275Z" fill="white"/>
<path d="M65.4775 30.1646C65.8087 30.0973 66.2097 29.9059 66.2769 29.0962C66.4089 31.0313 66.9444 32.6999 67.2781 33.9003C67.453 34.3269 67.5654 34.7765 67.6118 35.2352C67.6135 35.3134 67.596 35.3909 67.5609 35.4608C67.5257 35.5307 67.4739 35.5909 67.41 35.6361C66.4761 34.234 65.744 31.766 65.4775 30.1646Z" fill="white"/>
<path d="M67.3454 26.4935C67.3454 27.3627 67.41 28.0301 67.41 28.4285C67.41 29.0287 67.0763 29.4297 66.8099 29.4297C66.6808 28.6359 66.6142 27.8332 66.6107 27.029C66.6107 26.0278 66.7426 25.8286 66.9444 25.8286C67.1462 25.8286 67.3454 26.0278 67.3454 26.4935Z" fill="white"/>
<path d="M67.6118 37.636L67.6791 37.1703L68.0775 36.5028L67.3454 37.103L67.1436 37.4368H67.0116L67.0763 36.9685L67.6118 36.5028L66.9444 36.702L66.8099 36.9012H66.6107L66.8694 36.5028L68.2043 35.9673L68.4035 34.5005C68.4707 34.5678 68.538 34.5678 68.6622 34.5678C68.8639 34.5678 68.9209 34.5678 68.9959 34.5005L68.6622 35.9673L69.5314 36.5028L69.6633 37.0358H69.5314L69.1951 36.702L68.5949 36.5028L67.9947 37.235L67.736 37.636H67.6118Z" fill="white"/>
<path d="M66.8096 29.8983C67.0683 29.8983 67.4098 29.6396 67.4771 28.9644C67.5443 29.6292 67.8108 30.7753 67.8108 31.2306C67.8108 31.6859 67.6116 32.0998 67.3451 32.0998C67.0761 31.4996 66.9364 30.5657 66.8096 29.8983Z" fill="white"/>
<path d="M68.4106 32.5654C68.4106 32.8241 68.5451 33.101 68.8116 33.101C69.0108 33.101 69.21 32.8992 69.3445 32.6327C69.6032 32.8914 69.7455 33.3674 69.7455 34.2341C69.5697 34.1885 69.4146 34.0845 69.3056 33.9393C69.1966 33.7941 69.1401 33.6162 69.1453 33.4347C69.078 33.9676 68.8866 34.2341 68.6771 34.2341C68.5451 34.2341 68.4779 34.0349 68.4779 33.7658V33.3002C68.4106 33.5589 68.0096 33.9003 67.6785 33.7658C67.8777 33.1656 68.1441 32.7025 68.4106 32.5654Z" fill="white"/>
<path d="M68.9465 31.0312C69.6786 31.0312 69.8778 31.2899 69.8778 32.2989V32.7025C69.5466 32.7025 69.3449 32.3687 69.2776 32.035C69.2103 32.5007 69.0189 32.7025 68.8792 32.7025C68.6774 32.7025 68.6205 32.5679 68.6205 32.2342V31.8332C68.3618 32.3015 68.0876 32.3015 67.8884 32.3015C68.1445 31.2977 68.411 31.0312 68.9465 31.0312Z" fill="white"/>
<path d="M70.346 27.6296C70.747 27.6296 71.0135 27.2286 71.0135 26.6957C71.148 27.2286 71.4119 27.4304 71.6136 27.4304C71.8724 27.4304 72.1466 26.9621 72.1466 26.4292C72.2138 26.8949 72.4803 27.2958 72.814 27.2958C72.814 28.0306 72.6821 28.429 72.3484 28.429C72.1466 28.429 72.0897 28.0952 71.9474 27.5623C71.9474 28.0952 71.6887 28.6308 71.4119 28.6308C71.2127 28.6308 71.0807 28.429 70.9462 27.8288C70.8789 28.429 70.6125 28.8972 70.346 28.8972C70.1468 28.8972 69.8131 28.429 69.8131 27.8288C69.6786 28.429 69.5544 28.6308 69.3448 28.6308C69.0861 28.6308 68.8119 28.0952 68.8119 27.5623C68.6774 28.0952 68.6101 28.429 68.4109 28.429C68.0772 28.429 67.9453 28.0306 67.9453 27.2958C68.204 27.2958 68.5454 26.8949 68.6101 26.4292C68.6101 26.9621 68.8688 27.4304 69.1456 27.4304C69.3448 27.4304 69.6113 27.2286 69.7458 26.6957C69.7458 27.2286 70.0123 27.6296 70.346 27.6296Z" fill="white"/>
<path d="M70.3467 29.6293C70.6804 29.6293 71.0141 29.1637 71.0141 28.6307C71.1487 29.1637 71.2728 29.4301 71.5471 29.4301C71.8213 29.4301 72.0153 28.9644 72.0153 28.3643C72.3417 28.8365 72.5266 29.392 72.5482 29.9656C72.5482 30.4313 72.4137 30.5658 72.2895 30.5658C72.0877 30.5658 71.8213 30.3071 71.7566 29.6966C71.7566 30.4313 71.5548 30.765 71.2884 30.765C71.1564 30.765 70.9546 30.5063 70.8201 30.0303C70.8201 30.6305 70.6209 31.0315 70.3544 31.0315C70.1552 31.0315 69.9534 30.6305 69.9534 30.0303C69.8215 30.4986 69.6197 30.765 69.4878 30.765C69.2291 30.765 69.0195 30.4313 69.0195 29.6966C68.9549 30.2994 68.6858 30.5658 68.4866 30.5658C68.3521 30.5658 68.2279 30.4313 68.2279 29.9656C68.2483 29.3918 68.4333 28.8359 68.7608 28.3643C68.7608 28.9644 68.9626 29.4301 69.2265 29.4301C69.4904 29.4301 69.6275 29.1714 69.762 28.6307C69.7465 29.1637 70.0802 29.6293 70.3467 29.6293Z" fill="white"/>
<path d="M68.7112 40.4636C68.7112 40.2049 68.9466 39.9643 69.4873 39.6875C69.3682 39.9139 69.2097 40.1171 69.019 40.2877C69.42 40.029 69.3528 40.0859 69.5546 39.954C69.2959 40.5542 69.0527 40.6214 68.9207 40.6214C68.7888 40.6214 68.7112 40.5723 68.7112 40.4636Z" fill="white"/>
<path d="M69.1795 41.0712C69.1795 40.8125 69.3787 40.471 69.847 40.0054C69.7124 40.4038 69.6452 40.5383 69.5132 40.9393C69.7124 40.6056 69.847 40.471 69.9789 40.2718C69.9116 41.2058 69.6115 41.3713 69.4123 41.3713C69.2778 41.3713 69.1795 41.273 69.1795 41.0712Z" fill="white"/>
<path d="M70.346 42.5072C70.0873 42.5072 69.8777 42.3726 69.8777 41.907C69.8928 41.483 69.9803 41.0648 70.1364 40.6704C70.2472 40.9715 70.3143 41.2868 70.3357 41.6069C70.3565 41.2865 70.4245 40.9709 70.5374 40.6704C70.6931 41.065 70.7805 41.4831 70.7961 41.907C70.8168 42.3726 70.6125 42.5072 70.346 42.5072Z" fill="white"/>
<path d="M71.0475 21.8575C71.0616 22.0714 71.0953 22.2836 71.1484 22.4913C71.1484 22.75 70.7474 22.9596 70.3464 22.9596C70.0877 22.9596 69.6789 22.7578 69.6789 22.5586C69.6789 22.3594 69.9118 21.8911 69.9118 21.4901C69.9132 21.3997 69.8909 21.3105 69.8471 21.2314C69.9834 21.326 70.147 21.3733 70.3128 21.366C70.4012 21.3719 70.4898 21.3567 70.5713 21.3216C70.6527 21.2865 70.7246 21.2325 70.781 21.1642C69.979 21.3996 69.679 20.9313 69.6117 20.5303C69.3116 20.6649 69.0115 20.564 68.9468 20.3312C68.7962 20.3841 68.6507 20.4508 68.5122 20.5303C68.3777 19.9638 68.5769 19.8319 69.2883 19.731C69.2032 19.6407 69.1559 19.5213 69.1564 19.3972C69.1564 19.0635 69.5237 18.8979 70.3567 18.8979C70.7241 18.8979 70.9569 19.0299 70.8897 19.1981C70.8897 19.33 70.8224 19.33 70.8224 19.3972C71.0023 19.4544 71.1571 19.5718 71.2607 19.7296C71.3643 19.8874 71.4105 20.0761 71.3916 20.2639C71.3812 20.9236 71.0475 21.0607 71.0475 21.8575ZM70.3464 19.956C70.4809 19.956 70.5792 19.8914 70.5792 19.7568C70.5792 19.6223 70.4809 19.5576 70.3464 19.5576C70.2119 19.5576 70.1136 19.6223 70.1136 19.7568C70.1136 19.8914 70.2119 19.956 70.3464 19.956Z" fill="white"/>
<path d="M71.2797 41.3713C71.0805 41.3713 70.7804 41.2058 70.7131 40.2718C70.8451 40.471 70.9718 40.6056 71.1788 40.9393C71.0469 40.5383 70.9796 40.4038 70.8451 40.0054C71.3133 40.471 71.5125 40.8048 71.5125 41.0712C71.5125 41.273 71.4116 41.3713 71.2797 41.3713Z" fill="white"/>
<path d="M72.1461 31.8306V32.2316C72.1461 32.5654 72.0788 32.6999 71.8874 32.6999C71.7555 32.6999 71.5537 32.4981 71.4192 32.0324C71.4366 32.1915 71.3903 32.3511 71.2905 32.4762C71.1906 32.6012 71.0453 32.6817 70.8862 32.6999V32.2989C70.8862 31.2977 71.088 31.0312 71.8201 31.0312C72.3557 31.0312 72.6221 31.2899 72.8886 32.2989C72.6816 32.2989 72.4126 32.2989 72.1461 31.8306Z" fill="white"/>
<path d="M72.2818 33.3003V33.7659C72.2818 34.0246 72.2145 34.2342 72.08 34.2342C71.8808 34.2342 71.6816 33.9755 71.6144 33.4348C71.5944 33.6094 71.5283 33.7755 71.4228 33.916C71.3173 34.0565 71.1762 34.1663 71.0142 34.2342C71.0142 33.3675 71.0814 32.8993 71.3479 32.7001C71.3912 32.8227 71.4731 32.9281 71.5813 33.0003C71.6895 33.0726 71.8182 33.108 71.9481 33.1011C72.0098 33.1025 72.0712 33.0914 72.1285 33.0683C72.1859 33.0452 72.2379 33.0107 72.2815 32.9669C72.325 32.9231 72.3592 32.8709 72.3819 32.8135C72.4047 32.756 72.4155 32.6946 72.4137 32.6328C72.6724 32.832 72.882 33.1657 73.0139 33.7659C72.7475 33.9005 72.3491 33.5667 72.2818 33.3003Z" fill="white"/>
<path d="M73.0129 37.6362L72.7542 37.2352L72.154 36.5031L71.5538 36.7023L71.2201 37.036H71.0752L71.2071 36.5031L72.0738 35.9676L71.7478 34.5137C71.8125 34.5809 71.8798 34.5809 72.079 34.5809C72.2135 34.5809 72.2807 34.5809 72.3377 34.5137L72.4696 35.9805L73.8718 36.516L74.071 36.9144H73.939L73.8045 36.7152L73.137 36.516L73.67 36.9817L73.7372 37.4499H73.6053L73.4035 37.1007L72.6714 36.5005L73.0698 37.168L73.137 37.6336L73.0129 37.6362Z" fill="white"/>
<path d="M71.78 40.6395C71.6481 40.6395 71.4127 40.5722 71.1488 39.972C71.348 40.104 71.2807 40.0367 71.6817 40.3058C71.4904 40.1359 71.3317 39.9325 71.2135 39.7056C71.749 39.9643 71.9896 40.2049 71.9896 40.4817C71.9818 40.5722 71.9145 40.6395 71.78 40.6395Z" fill="white"/>
<path d="M73.9503 29.8983C73.8158 30.5657 73.6916 31.4996 73.4148 32.0998C73.1561 32.0998 72.9492 31.6988 72.9492 31.2306C72.9492 30.7623 73.2079 29.6292 73.2829 28.9644C73.2829 29.6292 73.6813 29.8983 73.9503 29.8983Z" fill="white"/>
<path d="M75.2817 30.1646C75.023 31.766 74.2806 34.234 73.3492 35.6361C73.2854 35.5909 73.2336 35.5307 73.1984 35.4608C73.1632 35.3909 73.1457 35.3134 73.1475 35.2352C73.1939 34.7765 73.3063 34.3269 73.4812 33.9003C73.8149 32.6999 74.3478 31.0313 74.4823 29.0962C74.5496 29.8982 74.9558 30.0973 75.2817 30.1646Z" fill="white"/>
<path d="M73.4037 26.4935C73.4037 26.0278 73.6055 25.8286 73.8047 25.8286C74.0039 25.8286 74.0634 26.0278 74.0634 27.029C74.0835 27.8314 74.0394 28.6343 73.9315 29.4297C73.6728 29.4297 73.3313 29.0287 73.3313 28.4285C73.3494 28.0301 73.4037 27.3627 73.4037 26.4935Z" fill="white"/>
<path d="M76.5499 30.6325C76.2912 32.2339 75.4168 34.9037 74.4156 36.3033C74.3503 36.245 74.2986 36.173 74.2642 36.0926C74.2298 36.0121 74.2135 35.9251 74.2164 35.8376C74.2239 35.4027 74.3116 34.973 74.4751 34.5699C74.9408 33.3023 75.6082 31.3672 75.81 29.4321C75.8824 30.2315 76.1515 30.5652 76.5499 30.6325Z" fill="white"/>
<path d="M74.8162 24.2275C75.0154 24.2275 75.1499 24.4862 75.3491 26.1626C74.7489 26.1626 74.5497 25.4952 74.5497 24.895C74.5497 24.4241 74.6144 24.2275 74.8162 24.2275Z" fill="white"/>
<path d="M75.4163 26.6956V27.8287C75.4251 28.4082 75.4026 28.9876 75.3491 29.5646C74.9481 29.5646 74.5497 29.1636 74.5497 28.5634C74.5497 28.2297 74.6144 27.6968 74.6144 27.0966C74.6221 26.6507 74.6005 26.2048 74.5497 25.7617C74.6816 26.3619 75.0154 26.6956 75.4163 26.6956Z" fill="white"/>
<path d="M75.7504 25.627C75.6159 24.8949 75.4166 23.8937 74.9484 23.2987C74.8811 23.1642 74.8165 23.0969 74.8165 22.965C74.8189 22.9127 74.8406 22.8632 74.8774 22.8259C74.9142 22.7887 74.9634 22.7663 75.0157 22.7632C75.2174 22.7632 75.4166 22.965 75.5512 23.1642C76.1514 24.0308 76.4825 24.9751 76.617 26.7006C76.0841 26.6955 75.8823 26.429 75.7504 25.627Z" fill="white"/>
<path d="M77.8171 30.7648C77.4716 33.0522 76.6806 35.2495 75.4888 37.2323C75.3965 37.2131 75.3133 37.1634 75.2527 37.0911C75.1922 37.0188 75.1578 36.9282 75.1551 36.8339C75.1551 36.5002 75.3543 36.0319 75.5561 35.4317C75.9545 34.2986 76.7564 32.63 77.0876 29.6265C77.0824 30.431 77.4187 30.7648 77.8171 30.7648Z" fill="white"/>
<path d="M77.0261 25.6271C76.858 24.2922 76.3587 23.2988 75.8257 22.7581C75.567 22.4994 75.3575 22.4244 75.3575 22.2925C75.3575 22.1605 75.492 22.0933 75.6162 22.0933C76.0172 22.0933 76.7519 22.6935 77.2848 23.6921C77.7084 24.6645 77.9571 25.704 78.0195 26.7628C77.484 26.7525 77.1167 26.4291 77.0261 25.6271Z" fill="white"/>
<path d="M76.684 27.2284C76.7424 27.5134 76.765 27.8045 76.7513 28.0951C76.7476 28.7897 76.6801 29.4825 76.5495 30.1647C75.9493 30.0302 75.8821 29.4973 75.8821 28.9644C75.8821 28.6306 75.9493 28.0304 75.9493 27.5622C75.9493 27.2285 75.8821 26.7628 75.8174 26.1626C76.0166 27.0292 76.3503 27.2284 76.684 27.2284Z" fill="white"/>
<path d="M78.7517 33.3671C78.2188 35.1004 77.4194 36.901 76.4234 38.104C76.3567 38.0798 76.3003 38.0335 76.2635 37.9728C76.2268 37.912 76.212 37.8406 76.2216 37.7702C76.2216 37.5115 76.5553 36.9683 76.889 36.1016C77.4058 34.7525 77.8294 33.3695 78.1567 31.9624C78.1515 32.8989 78.3533 33.2326 78.7517 33.3671Z" fill="white"/>
<path d="M78.0196 27.2956C78.0375 28.2762 77.9925 29.257 77.885 30.2319C77.2849 30.1646 77.2176 29.5644 77.2176 29.0962V27.7639C77.2273 27.2731 77.2048 26.7822 77.1503 26.2944C77.2849 27.0964 77.6859 27.2956 78.0196 27.2956Z" fill="white"/>
<path d="M77.9523 37.1704C77.971 36.9437 78.0152 36.7197 78.0842 36.5029C78.1515 36.9013 79.0854 37.1031 79.0854 37.7706V38.0293C79.2199 37.6956 79.5536 37.6956 79.8201 37.6956C80.4875 37.6956 80.7204 37.7292 80.8213 37.6283C80.7823 37.8975 80.6443 38.1424 80.4342 38.3151C80.2242 38.4878 79.9572 38.576 79.6856 38.5622C78.8862 38.57 77.9523 38.0371 77.9523 37.1704Z" fill="white"/>
<path d="M79.4183 27.5626V28.4965C79.43 29.9588 79.2508 31.4164 78.8854 32.8323C78.5517 32.7004 78.2852 32.3667 78.2852 31.632C78.2744 31.4074 78.2971 31.1824 78.3525 30.9645C78.4834 29.9921 78.55 29.012 78.5517 28.0308C78.5614 27.5177 78.539 27.0045 78.4844 26.4941C78.6836 27.3634 79.095 27.5626 79.4183 27.5626Z" fill="white"/>
<path d="M78.5525 36.1018C78.5349 35.9861 78.5587 35.8679 78.6197 35.7681C78.8189 36.1691 79.7528 36.2363 79.7528 36.9012C79.8873 36.301 80.8213 36.5701 81.2222 36.1691C81.155 36.9685 80.754 37.2349 80.0866 37.2349C79.2199 37.2349 78.5525 36.8417 78.5525 36.1018Z" fill="white"/>
<path d="M78.953 35.031C78.9429 34.9156 78.9662 34.7997 79.0202 34.6973C79.279 35.0983 79.9516 35.0983 79.9516 35.6338C80.1534 35.0983 80.8855 35.2975 81.2218 35.031C81.1545 35.6985 80.7536 36.0994 80.1534 36.0994C79.4187 36.102 78.953 35.6364 78.953 35.031Z" fill="white"/>
<path d="M80.1535 34.9686C79.5533 34.9686 79.186 34.4331 79.2196 33.7656C79.3515 33.9001 80.1535 34.0243 80.0863 34.6995C80.1535 34.0347 80.7537 34.1666 81.0202 33.8329V34.1666C81.0169 34.2765 80.9917 34.3846 80.9462 34.4846C80.9006 34.5847 80.8356 34.6746 80.755 34.7493C80.6743 34.8239 80.5796 34.8818 80.4763 34.9194C80.373 34.9571 80.2633 34.9738 80.1535 34.9686Z" fill="white"/>
<path d="M80.1536 33.9004C80.0283 33.8413 79.9233 33.7463 79.8519 33.6275C79.7806 33.5087 79.746 33.3714 79.7526 33.233C79.7526 32.832 80.0113 32.4983 80.0113 31.9653C80.3514 32.2786 80.5649 32.7057 80.6115 33.1657C80.6168 33.3198 80.5761 33.472 80.4945 33.6028C80.413 33.7337 80.2943 33.8373 80.1536 33.9004Z" fill="white"/>
<path d="M61.3306 27.5958C61.6643 27.5958 62.0653 27.3966 62.2645 26.5273C62.2121 27.0378 62.1905 27.551 62.1998 28.064C62.2002 29.0453 62.2668 30.0254 62.399 30.9977C62.4545 31.2156 62.4771 31.4406 62.4663 31.6652C62.4663 32.3999 62.2076 32.7336 61.8661 32.8655C61.4789 31.4524 61.2772 29.9949 61.2659 28.5297C61.2528 28.217 61.2745 27.9037 61.3306 27.5958Z" fill="white"/>
</svg>
