<svg width="126" height="58" viewBox="0 0 126 58" fill="none" xmlns="http://www.w3.org/2000/svg">
<path d="M96.9025 39.8615V17.8667H103.952V34.4508H112.759L110.762 39.8615H96.9025ZM78.8157 31.5725H83.7485C82.5767 27.774 82.2239 25.816 82.2239 23.5121H80.46C80.46 25.8098 79.9875 27.7678 78.8157 31.5725ZM69.6495 39.8615V37.9035L75.6406 17.8667H87.3835L93.2549 37.9035V39.8615H86.4448C85.9723 38.4779 85.6195 37.3291 85.2731 36.1741H77.4046L76.1131 39.8615H69.6495ZM42.5224 39.8615V17.8667H52.3879C57.9066 27.8851 58.0263 29.9605 58.0263 32.4928H59.7902V17.8667H66.0145V39.8615H56.6151C50.624 29.6146 50.5043 27.5392 50.5043 24.7783H48.86V39.8615H42.5224ZM26.0736 40.4359C19.4965 40.4359 15.9749 37.4403 15.9749 32.4928V17.8667H23.1378V30.6522C23.1378 33.302 24.3096 34.6855 26.8988 34.6855C29.4818 34.6855 30.6598 33.7652 30.6598 31.4614V17.8729H37.3566V31.5725C37.3503 36.7547 33.1231 40.4359 26.0736 40.4359ZM0.773438 0.875V29.0587C0.773438 46.526 11.7099 57.125 29.5196 57.125H125.227V29.0587C125.227 11.7149 114.29 0.875 96.4804 0.875H0.773438Z" fill="#FCDC4D"/>
</svg>
