<svg width="50" height="50" viewBox="0 0 50 50" fill="none" xmlns="http://www.w3.org/2000/svg">
<path d="M15.7063 46.8772C34.575 46.8772 44.8969 31.2428 44.8969 17.7084C44.8969 17.2709 44.8969 16.8272 44.8781 16.3897C46.8877 14.9349 48.6221 13.1339 50 11.0709C48.1229 11.8986 46.1336 12.4441 44.0969 12.6897C46.2423 11.4073 47.8491 9.38957 48.6187 7.01154C46.6031 8.20568 44.3969 9.04396 42.0969 9.48967C40.5506 7.84286 38.5044 6.75191 36.2753 6.38578C34.0461 6.01966 31.7585 6.3988 29.7667 7.46447C27.7749 8.53014 26.19 10.2229 25.2577 12.2805C24.3253 14.3381 24.0974 16.6457 24.6094 18.8459C20.5304 18.6414 16.5401 17.5818 12.897 15.7357C9.25397 13.8897 6.03964 11.2986 3.4625 8.13029C2.15419 10.3899 1.75492 13.0628 2.34577 15.6061C2.93662 18.1495 4.4733 20.3726 6.64375 21.824C5.01731 21.7688 3.42663 21.332 2 20.549V20.6897C2.0028 23.0568 2.82284 25.3504 4.32148 27.1827C5.82013 29.015 7.90546 30.2736 10.225 30.7459C9.34457 30.9885 8.43509 31.1094 7.52188 31.1053C6.87807 31.1072 6.23556 31.0476 5.60313 30.9272C6.25871 32.9648 7.53523 34.7464 9.2539 36.0224C10.9726 37.2984 13.0473 38.0048 15.1875 38.0428C11.5517 40.8984 7.06063 42.4472 2.4375 42.4397C1.62288 42.4431 0.808822 42.3961 0 42.299C4.69223 45.2905 10.1416 46.8789 15.7063 46.8772Z" fill="#FCDC4D"/>
</svg>
